<svg width="20" height="20" viewBox="0 0 20 20" fill="none" xmlns="http://www.w3.org/2000/svg">
<path d="M16.6174 4.61485L15.7602 3.75762C15.5231 3.52057 15.14 3.52057 14.9029 3.75762L10.1875 8.47303L5.47209 3.75762C5.23505 3.52057 4.8519 3.52057 4.61485 3.75762L3.75762 4.61485C3.52057 4.8519 3.52057 5.23505 3.75762 5.47209L8.47303 10.1875L3.75762 14.9029C3.52057 15.14 3.52057 15.5231 3.75762 15.7602L4.61485 16.6174C4.73307 16.7356 4.88827 16.795 5.04347 16.795C5.19867 16.795 5.35387 16.7356 5.47209 16.6174L10.1875 11.902L14.9029 16.6174C15.0211 16.7356 15.1763 16.795 15.3315 16.795C15.4867 16.795 15.6419 16.7356 15.7602 16.6174L16.6174 15.7602C16.8544 15.5231 16.8544 15.14 16.6174 14.9029L11.902 10.1875L16.6174 5.47209C16.8544 5.23505 16.8544 4.8519 16.6174 4.61485Z" fill="white"/>
</svg>
