<svg width="120" height="120" viewBox="0 0 120 120" fill="none" xmlns="http://www.w3.org/2000/svg">
<path d="M60 120C26.9179 120 0 93.0821 0 60C0 26.9179 26.9179 0 60 0C93.0821 0 120 26.9179 120 60C120 93.0821 93.0821 120 60 120ZM60 1.52086C27.7524 1.52086 1.51413 27.7591 1.51413 60.0067C1.51413 92.2544 27.7524 118.493 60 118.493C92.2476 118.493 118.486 92.2544 118.486 60.0067C118.479 27.7524 92.2476 1.52086 60 1.52086Z" fill="#009296"/>
<path d="M17.92 48.372C17.5162 48.8565 17.0384 49.193 16.4934 49.3814C15.9483 49.5699 15.3695 49.5766 14.7571 49.4016L15.4032 47.2549C15.8204 47.3491 16.1905 47.302 16.5068 47.1136C16.8231 46.9252 17.0519 46.6022 17.1932 46.1446C17.3345 45.6802 17.3345 45.2764 17.1932 44.94C17.0519 44.6035 16.7962 44.3814 16.4328 44.2738C16.1367 44.1863 15.8675 44.1997 15.6185 44.3276C15.3763 44.4487 15.1542 44.6304 14.9658 44.8727C14.7773 45.1082 14.5418 45.4514 14.2592 45.8821C13.8756 46.4743 13.5257 46.9454 13.2161 47.2886C12.9065 47.6385 12.523 47.9009 12.0586 48.0759C11.5943 48.2509 11.0492 48.2442 10.4166 48.0557C9.82445 47.874 9.35338 47.5712 9.00345 47.1472C8.65352 46.7166 8.4449 46.2051 8.37088 45.5995C8.29685 44.9938 8.36415 44.3478 8.57276 43.6614C8.88232 42.6318 9.38703 41.8713 10.0802 41.3801C10.7733 40.8888 11.5808 40.7408 12.496 40.9494L11.8298 43.1499C11.4799 43.0625 11.1502 43.123 10.8473 43.3316C10.5378 43.5335 10.3224 43.8633 10.1878 44.3074C10.0667 44.6977 10.0734 45.0409 10.2013 45.337C10.3292 45.6331 10.5849 45.835 10.9685 45.9494C11.2376 46.0301 11.4866 46.01 11.7154 45.8888C11.9442 45.7677 12.1528 45.5927 12.3413 45.3572C12.5297 45.1284 12.7652 44.7987 13.0546 44.3612C13.4382 43.769 13.7948 43.298 14.1044 42.9481C14.4207 42.5981 14.811 42.3289 15.282 42.1472C15.7531 41.9655 16.2982 41.9723 16.9173 42.1607C17.4489 42.3222 17.9065 42.6116 18.2767 43.0288C18.6535 43.446 18.8958 43.9575 19.0034 44.5766C19.1111 45.1957 19.0573 45.8686 18.8352 46.6022C18.6333 47.2953 18.3305 47.8875 17.92 48.372Z" fill="#009296"/>
<path d="M20.7664 39.6708C19.9656 40.1486 19.0907 40.3976 18.1486 40.411C17.2065 40.4245 16.2913 40.1755 15.403 39.6641C14.5214 39.1594 13.8485 38.4999 13.3774 37.6789C12.9063 36.8579 12.6775 35.983 12.691 35.0476C12.6977 34.1122 12.9467 33.2172 13.4312 32.3693C13.9225 31.5147 14.5685 30.8484 15.3693 30.3707C16.1701 29.8929 17.0382 29.6506 17.9804 29.6439C18.9225 29.6371 19.831 29.8861 20.7125 30.3908C21.6008 30.9023 22.2805 31.5618 22.7516 32.376C23.2226 33.1903 23.4514 34.0651 23.4447 35.0005C23.438 35.9359 23.189 36.831 22.7044 37.6789C22.2199 38.5268 21.5739 39.193 20.7664 39.6708ZM21.5335 35.1015C21.5268 34.5429 21.3586 34.018 21.0355 33.5268C20.7125 33.0288 20.2482 32.6116 19.6425 32.2616C19.0369 31.9184 18.438 31.73 17.8525 31.7031C17.267 31.6762 16.7287 31.804 16.2509 32.0799C15.7731 32.3559 15.3761 32.7663 15.0665 33.3114C14.7569 33.8565 14.6022 34.4083 14.6022 34.9669C14.6022 35.5254 14.7637 36.0503 15.0867 36.5416C15.4097 37.0328 15.8673 37.4568 16.473 37.8C17.0786 38.1432 17.6775 38.3316 18.2697 38.3585C18.8619 38.3855 19.4003 38.2643 19.8848 37.9817C20.3693 37.7058 20.7664 37.2886 21.0826 36.7502C21.3922 36.2051 21.5403 35.66 21.5335 35.1015Z" fill="#009296"/>
<path d="M23.3575 20.8014C24.239 20.4919 25.1273 20.4515 26.0089 20.6668C26.8972 20.8822 27.7182 21.3532 28.4719 22.0733C29.2323 22.7933 29.737 23.5874 29.986 24.4555C30.2417 25.3236 30.235 26.2052 29.9725 27.1002C29.7101 27.9952 29.1987 28.8431 28.445 29.6372L25.9281 32.2752L18.3911 25.0948L20.9012 22.4569C21.6549 21.6628 22.4759 21.111 23.3575 20.8014ZM28.2161 26.0168C28.196 25.1688 27.7922 24.3748 27.0048 23.6278C26.2175 22.8808 25.3965 22.5107 24.5419 22.5174C23.6872 22.5242 22.8797 22.9279 22.126 23.722L21.1031 24.792L26.0964 29.543L27.1192 28.473C27.8729 27.6789 28.2363 26.8579 28.2161 26.0168Z" fill="#009296"/>
<path d="M28.6602 15.5453L34.9792 23.8427L33.317 25.1079L26.998 16.8104L28.6602 15.5453Z" fill="#009296"/>
<path d="M33.1287 12.5641L36.1906 18.2505C36.527 18.8763 36.9443 19.2599 37.449 19.4147C37.9537 19.5695 38.492 19.4887 39.0842 19.1724C39.6832 18.8494 40.0533 18.4389 40.2013 17.9342C40.3494 17.4295 40.2552 16.8709 39.9187 16.2451L36.8568 10.5654L38.7141 9.56946L41.7693 15.2424C42.1865 16.023 42.375 16.7767 42.3278 17.4968C42.2807 18.2168 42.0452 18.8696 41.628 19.4416C41.2108 20.0203 40.6522 20.4914 39.9591 20.8682C39.2727 21.2384 38.5795 21.4335 37.8797 21.4604C37.1798 21.4874 36.5203 21.3191 35.9012 20.9557C35.2888 20.5923 34.7706 20.0203 34.3467 19.2397L31.2915 13.5735L33.1287 12.5641Z" fill="#009296"/>
<path d="M53.5126 5.26929L55.9487 15.4106L53.9164 15.9019L52.3349 9.30697L51.1976 16.5546L49.6566 16.9247L45.343 10.9826L46.9244 17.5775L44.8921 18.062L42.4561 7.9207L44.7643 7.36888L49.7979 14.132L51.2111 5.8211L53.5126 5.26929Z" fill="#009296"/>
<path d="M61.8096 7.36214C62.3547 6.60171 63.0545 6.04316 63.9024 5.67977C64.7504 5.31638 65.6656 5.18852 66.6548 5.29619C67.8123 5.42405 68.7948 5.82782 69.6023 6.51423C70.4098 7.20064 70.928 8.08893 71.1635 9.1791L68.7746 8.92338C68.5929 8.40521 68.2968 7.99471 67.893 7.69862C67.4893 7.40252 67.0047 7.22755 66.4395 7.16699C65.8338 7.09969 65.282 7.18718 64.784 7.41598C64.286 7.64478 63.8755 8.00817 63.5525 8.49269C63.2362 8.97722 63.0343 9.56941 62.9603 10.2625C62.8863 10.9422 62.9536 11.5613 63.1555 12.1132C63.3641 12.6582 63.6871 13.1024 64.1245 13.4321C64.5619 13.7686 65.0868 13.9638 65.6925 14.0311C66.2578 14.0916 66.7692 14.0176 67.2268 13.8157C67.6844 13.6071 68.0613 13.2706 68.3506 12.8063L70.7396 13.062C70.2753 14.0849 69.5821 14.8453 68.6535 15.3366C67.7248 15.8278 66.675 16.0162 65.5041 15.8884C64.5148 15.7807 63.6467 15.4577 62.893 14.9193C62.1461 14.381 61.5808 13.6878 61.2107 12.8332C60.8338 11.9786 60.7059 11.0432 60.8136 10.027C60.9213 9.01086 61.2645 8.12257 61.8096 7.36214Z" fill="#009296"/>
<path d="M73.7748 16.8237C73.1691 16.1104 72.7856 15.2894 72.6241 14.3607C72.4625 13.432 72.5635 12.4899 72.9202 11.5276C73.2768 10.5787 73.8219 9.80483 74.5554 9.21264C75.2889 8.62045 76.1167 8.25033 77.0453 8.10901C77.974 7.96769 78.8892 8.06863 79.8044 8.41183C80.7263 8.75504 81.4868 9.28667 82.0857 9.99999C82.6846 10.7133 83.0615 11.5343 83.223 12.463C83.3778 13.3916 83.2835 14.327 82.9269 15.2759C82.5635 16.2382 82.0251 17.0121 81.2916 17.6043C80.5648 18.1965 79.7371 18.5666 78.8084 18.7079C77.8798 18.8492 76.9646 18.7483 76.0494 18.4051C75.1409 18.0686 74.3804 17.5437 73.7748 16.8237ZM78.4114 16.8506C78.9565 16.7497 79.4477 16.5007 79.8852 16.1036C80.3226 15.7066 80.6658 15.175 80.908 14.5222C81.1503 13.8694 81.2378 13.2503 81.1705 12.6649C81.1032 12.0794 80.8946 11.5747 80.5447 11.144C80.1947 10.7133 79.7237 10.3903 79.1382 10.1682C78.5527 9.94615 77.9807 9.88559 77.4289 9.97307C76.8771 10.0606 76.3858 10.3095 75.9484 10.6999C75.511 11.0969 75.1745 11.6218 74.9255 12.2746C74.6833 12.9273 74.5891 13.5464 74.6564 14.1386C74.7237 14.7308 74.9323 15.2423 75.2822 15.6729C75.6321 16.1104 76.1032 16.4334 76.6954 16.6554C77.2943 16.8842 77.8663 16.9448 78.4114 16.8506Z" fill="#009296"/>
<path d="M86.6213 14.2666C87.4624 13.8696 88.344 13.708 89.2659 13.7955C90.1811 13.883 91.0492 14.2128 91.8635 14.7848C92.8191 15.451 93.4853 16.2787 93.8622 17.2747C94.239 18.2639 94.2659 19.2935 93.9496 20.3635L91.9779 18.984C92.0654 18.4389 92.0048 17.9409 91.7962 17.49C91.5809 17.0391 91.2444 16.6488 90.7801 16.3258C90.2821 15.9759 89.7572 15.7875 89.2054 15.7471C88.6536 15.7067 88.1219 15.8278 87.6105 16.097C87.099 16.3662 86.6414 16.7901 86.2444 17.3621C85.8541 17.9274 85.6118 18.4994 85.5311 19.0782C85.4503 19.6569 85.5176 20.202 85.7464 20.7067C85.9685 21.2114 86.3319 21.6354 86.8299 21.9853C87.2942 22.3083 87.7787 22.49 88.2767 22.5304C88.7747 22.5708 89.2659 22.4564 89.7505 22.1805L91.7222 23.56C90.8272 24.2329 89.8514 24.5627 88.7949 24.5492C87.7383 24.5358 86.7356 24.1926 85.7666 23.5196C84.9523 22.9476 84.34 22.2477 83.9429 21.42C83.5459 20.5923 83.3844 19.7107 83.4719 18.7821C83.5526 17.8534 83.8891 16.9718 84.4745 16.1307C85.06 15.2895 85.7733 14.6704 86.6213 14.2666Z" fill="#009296"/>
<path d="M92.5634 28.3245C92.3749 27.4093 92.4355 26.5008 92.7383 25.6125C93.0412 24.7175 93.5795 23.9369 94.3534 23.2707C95.1206 22.6045 95.9685 22.194 96.8972 22.0257C97.8258 21.8575 98.7276 21.9315 99.6091 22.2478C100.491 22.5641 101.251 23.0957 101.884 23.836C102.53 24.5829 102.94 25.4107 103.129 26.3259C103.31 27.2411 103.25 28.1428 102.947 29.0311C102.644 29.9194 102.106 30.6933 101.339 31.3595C100.565 32.0325 99.7101 32.4497 98.7881 32.6247C97.8662 32.7929 96.9644 32.7256 96.0829 32.4026C95.2013 32.0863 94.4409 31.5547 93.8083 30.8144C93.1623 30.0675 92.7518 29.2397 92.5634 28.3245ZM96.6212 30.5654C97.1461 30.7404 97.698 30.7606 98.2767 30.6193C98.8487 30.478 99.4005 30.1819 99.9321 29.7243C100.457 29.2667 100.834 28.7687 101.056 28.2236C101.278 27.6785 101.339 27.1334 101.238 26.5883C101.137 26.0432 100.881 25.5318 100.471 25.0607C100.06 24.5829 99.5889 24.2532 99.064 24.0715C98.5391 23.8898 97.9873 23.8629 97.4153 24.0042C96.8433 24.1455 96.2915 24.4416 95.7666 24.8925C95.2417 25.3434 94.8648 25.8481 94.636 26.3999C94.414 26.9517 94.3534 27.4968 94.4543 28.0486C94.5553 28.6004 94.811 29.1119 95.2215 29.5897C95.6253 30.0675 96.0896 30.3905 96.6212 30.5654Z" fill="#009296"/>
<path d="M110.861 38.1899L103.203 38.2303L99.986 39.9194L99.0103 38.0688L102.22 36.3797L106.588 30.0809L107.685 32.167L104.508 36.3662L109.764 36.1172L110.861 38.1899Z" fill="#009296"/>
<path d="M103.963 45.323L104.999 48.6003L103.418 49.105L101.749 43.8358L111.688 40.6864L112.321 42.6783L103.963 45.323Z" fill="#009296"/>
<path d="M26.0092 87.6922L17.7858 94.1054L16.5005 92.4566L24.7239 86.0435L26.0092 87.6922Z" fill="#009296"/>
<path d="M20.989 97.3693C20.7467 96.7838 20.666 96.2051 20.7535 95.6331C20.841 95.0611 21.0967 94.5429 21.5408 94.0786L23.1424 95.6465C22.8665 95.9763 22.7387 96.3195 22.7589 96.6896C22.779 97.0597 22.9607 97.4097 23.3039 97.7462C23.6539 98.0894 24.0105 98.271 24.3739 98.298C24.7373 98.3249 25.0536 98.2038 25.3161 97.9346C25.5314 97.7125 25.6391 97.4635 25.6458 97.1943C25.6458 96.9184 25.592 96.6425 25.4641 96.3599C25.343 96.0772 25.1478 95.7138 24.8921 95.2697C24.5489 94.6573 24.2864 94.1324 24.1249 93.695C23.9567 93.2576 23.9029 92.8 23.9567 92.302C24.0105 91.8107 24.273 91.3262 24.7306 90.8552C25.1613 90.411 25.6458 90.1351 26.1909 90.0207C26.7292 89.9063 27.2878 89.9601 27.8598 90.1755C28.4318 90.3908 28.9702 90.7475 29.4816 91.2455C30.2488 91.9992 30.6929 92.7933 30.8073 93.6344C30.9217 94.4756 30.6795 95.263 30.0738 95.9763L28.4251 94.368C28.6606 94.0988 28.7616 93.7758 28.7212 93.4124C28.6808 93.049 28.4924 92.699 28.1626 92.376C27.8665 92.0934 27.5637 91.9386 27.2407 91.9184C26.9177 91.8982 26.6216 92.0328 26.3457 92.3155C26.1505 92.5173 26.0563 92.7461 26.0563 93.0086C26.0563 93.271 26.1169 93.5335 26.238 93.8094C26.3591 94.0853 26.5408 94.4487 26.7898 94.8996C27.133 95.5187 27.3887 96.0436 27.557 96.4877C27.7252 96.9319 27.779 97.4029 27.7252 97.9009C27.6646 98.3989 27.4157 98.8834 26.9581 99.3478C26.5677 99.7448 26.1034 100.021 25.565 100.155C25.0267 100.297 24.4547 100.27 23.8558 100.088C23.2568 99.8996 22.6848 99.5429 22.1397 99.0046C21.6148 98.4999 21.238 97.9548 20.989 97.3693Z" fill="#009296"/>
<path d="M33.8356 97.288L32.3619 99.4481L35.2623 101.427L34.3269 102.799L31.4265 100.821L29.872 103.102L33.1425 105.336L32.1802 106.743L27.1802 103.331L33.0685 94.7039L38.0685 98.1157L37.1062 99.5222L33.8356 97.288Z" fill="#009296"/>
<path d="M45.6055 101.696L44.9057 103.231L42.3754 102.08L38.7482 110.034L36.8438 109.166L40.4709 101.212L37.9407 100.061L38.6405 98.5267L45.6055 101.696Z" fill="#009296"/>
<path d="M54.744 103.944L52.3954 114.105L50.3564 113.634L51.3591 109.314L47.0051 108.304L46.0024 112.625L43.9634 112.154L46.312 101.992L48.351 102.463L47.3819 106.642L51.7359 107.652L52.705 103.473L54.744 103.944Z" fill="#009296"/>
<path d="M58.3105 104.078L57.5231 114.475L55.437 114.32L56.2244 103.923L58.3105 104.078Z" fill="#009296"/>
<path d="M62.7454 113.997C61.8907 113.614 61.1909 113.035 60.6458 112.268C60.1007 111.501 59.7844 110.606 59.6969 109.583C59.6094 108.573 59.7709 107.638 60.1747 106.79C60.5785 105.942 61.1707 105.249 61.9446 104.724C62.7184 104.199 63.5933 103.896 64.5623 103.809C65.5448 103.721 66.46 103.876 67.308 104.26C68.1559 104.65 68.849 105.222 69.3874 105.996C69.9257 106.763 70.242 107.651 70.3295 108.668C70.417 109.69 70.2622 110.626 69.8584 111.474C69.4547 112.322 68.8692 113.008 68.0953 113.54C67.3214 114.071 66.4466 114.374 65.4775 114.455C64.5085 114.536 63.6 114.388 62.7454 113.997ZM66.9378 112.026C67.3887 111.703 67.7252 111.265 67.9473 110.713C68.1693 110.161 68.2501 109.542 68.1895 108.849C68.129 108.156 67.9405 107.557 67.631 107.059C67.3214 106.561 66.9109 106.191 66.4129 105.956C65.915 105.72 65.3497 105.626 64.7238 105.68C64.098 105.733 63.5596 105.922 63.102 106.238C62.6444 106.554 62.3012 106.992 62.0792 107.53C61.8571 108.075 61.7763 108.694 61.8302 109.388C61.8907 110.081 62.0792 110.68 62.3887 111.184C62.705 111.689 63.1088 112.059 63.6135 112.301C64.1182 112.544 64.6835 112.638 65.3093 112.584C65.9486 112.537 66.487 112.349 66.9378 112.026Z" fill="#009296"/>
<path d="M82.2945 110.357L80.3093 111.016L73.5596 105.713L75.814 112.503L73.8288 113.163L70.5381 103.25L72.5233 102.591L79.2797 107.907L77.0186 101.104L79.0038 100.444L82.2945 110.357Z" fill="#009296"/>
<path d="M89.9527 103.842L86.3995 105.989L86.837 108.042L84.9594 109.179L82.7656 98.3041L84.8518 97.0457L93.4655 104.038L91.5745 105.182L89.9527 103.842ZM88.6001 102.705L85.0536 99.751L86.0227 104.266L88.6001 102.705Z" fill="#009296"/>
<path d="M93.7208 89.7983L94.8581 91.0432L92.8056 92.9208L98.7074 99.3676L97.1663 100.781L91.2646 94.3339L89.2188 96.2115L88.0815 94.9665L93.7208 89.7983Z" fill="#009296"/>
<path d="M96.8843 88.4792L98.9502 90.0808L101.104 87.3083L102.416 88.3244L100.262 91.097L102.443 92.7928L104.872 89.6636L106.218 90.7067L102.51 95.4846L94.2598 89.0849L97.9677 84.3069L99.3136 85.35L96.8843 88.4792Z" fill="#009296"/>
<path d="M71.3524 43.5531C70.7401 44.5894 70.1546 45.5854 69.5557 46.6016C70.1546 45.5921 70.7468 44.5894 71.3524 43.5531Z" fill="#009296"/>
<path d="M63.8086 46.1979C64.3133 46.3257 64.7709 46.4401 65.2016 46.5478C64.7642 46.4401 64.3066 46.3325 63.8086 46.1979Z" fill="#009296"/>
<path d="M48.082 51.9918C48.1964 51.9514 48.3108 51.9177 48.4252 51.8841C48.3041 51.9177 48.1897 51.9581 48.082 51.9918Z" fill="#009296"/>
<path d="M60.1411 51.9649C60.2353 51.9784 60.3161 51.9851 60.4103 51.9918L60.592 50.0941C60.5785 50.0941 60.5449 50.0874 60.5112 50.0874C60.3968 50.5181 60.3228 50.7536 60.2824 50.9892C60.2219 51.292 60.1882 51.5948 60.1411 51.9649Z" fill="#009296"/>
<path d="M46.9717 50.5316C45.1884 51.2045 44.8385 52.9407 46.1709 54.3001C47.0458 55.1884 48.1292 55.9757 49.2598 56.5073C55.7739 59.5693 62.6851 60.8613 69.852 60.6863C71.3997 60.646 73.0148 60.2489 74.4616 59.6702C76.1642 58.9905 76.3997 57.261 75.1481 55.9084C74.6366 55.3566 74.031 54.8182 73.3647 54.4818C71.7497 53.6608 70.1211 52.8129 68.4118 52.2476C65.8412 51.3997 63.1898 50.7873 60.5249 50.0605C60.5182 50.074 60.5182 50.0874 60.5114 50.1009C60.5451 50.1076 60.572 50.1076 60.5922 50.1076L60.4105 52.0053C60.3163 51.9919 60.2355 51.9851 60.1413 51.9784C60.1413 51.9851 60.1413 51.9851 60.1413 51.9919C60.6124 52.0928 60.969 52.1668 61.3324 52.2409C64.9596 52.9811 68.5263 53.903 71.8102 55.6796C72.5034 56.0565 73.1225 56.5679 73.7281 57.0794C74.2463 57.5168 74.105 57.9609 73.4993 58.1561C72.7187 58.4051 71.9246 58.6406 71.1171 58.7483C67.611 59.1924 64.1454 58.7146 60.6864 58.183L58.4455 57.8465L54.8318 56.864C54.8318 56.864 53.8964 56.5275 52.6783 56.0228C50.8883 55.3768 49.2328 54.6433 47.8197 53.4252C47.0256 52.7388 47.1063 52.3687 48.0888 52.0121C48.1965 51.9717 48.3109 51.938 48.432 51.9044C49.8452 51.4535 51.3055 51.3728 52.8466 51.3997L52.86 51.4602C54.6568 51.467 57.0188 51.6217 60.1481 51.9851C60.2019 51.615 60.2355 51.3122 60.2894 51.0094C60.3365 50.7738 60.4105 50.5383 60.5182 50.1076C59.8991 50.0336 56.4401 49.3943 51.5209 49.5693C49.9664 49.6096 48.4051 49.9865 46.9717 50.5316Z" fill="#009296"/>
<path d="M52.8528 51.4402L52.8393 51.3796C51.2983 51.3527 49.838 51.4335 48.4248 51.8843C49.3064 51.6219 50.6657 51.4267 52.8528 51.4402Z" fill="#009296"/>
<path d="M52.6717 56.0025C51.0297 55.3161 48.8695 54.3201 47.813 53.4049C49.2262 54.6297 50.8816 55.3565 52.6717 56.0025Z" fill="#009296"/>
<path d="M59.6768 47.2816C59.6902 47.2816 59.7037 47.2816 59.7104 47.2884H59.8181L60.0738 45.6127C60.02 45.6262 59.9594 45.6397 59.8854 45.6464C59.8181 46.1982 59.7508 46.7366 59.6768 47.2816Z" fill="#009296"/>
<path d="M75.424 72.1532C75.5519 71.9985 75.7268 71.7764 75.9085 71.561C78.7416 68.1559 80.8211 64.3538 81.992 60.0604C82.5034 58.1761 82.2208 56.4534 80.9893 55.0133C79.9462 53.7952 78.7349 52.6916 77.4563 51.7225C76.2719 50.8208 74.8991 50.1613 73.5532 49.3538C75.2221 44.6768 75.7336 39.8652 75.0135 34.771C73.9166 35.269 72.8937 35.6324 71.9718 36.1775C68.3581 38.3174 65.3904 41.2111 62.8264 44.5018C62.1131 45.417 61.4805 46.0361 60.276 45.5987C60.2221 45.5785 60.1548 45.592 60.0741 45.6055L59.8184 47.2811H59.7107C59.6972 47.2811 59.6838 47.2811 59.677 47.2744C59.677 47.2811 59.677 47.2878 59.677 47.3013C59.9193 47.3618 60.0539 47.4157 60.1952 47.4359C63.6071 47.9406 66.9314 48.775 70.1481 50.02C73.2908 51.2313 76.3123 52.6781 78.7282 55.1142C81.3863 57.7993 80.9153 60.4103 77.3823 61.7696C75.525 62.483 73.4994 62.7723 71.5344 63.1761C70.9556 63.2972 70.5855 63.4318 70.3163 64.0106C69.9193 64.8518 69.3675 65.6256 68.7686 66.6216C68.5398 65.6122 68.3648 64.9056 68.2235 64.199C68.1158 63.6404 67.813 63.4184 67.2342 63.3847C65.673 63.2972 64.1185 63.1761 62.564 62.9944C57.4832 62.3955 52.5842 61.1034 47.9745 58.8356C45.7201 57.7252 43.5869 56.4264 41.9853 54.4211C40.249 52.2474 40.6057 50.2824 43.035 48.9164C45.7605 47.382 49.8857 46.1236 59.677 47.2811C59.7511 46.7293 59.8184 46.1976 59.8924 45.6391C59.9664 45.6324 60.027 45.6189 60.0808 45.6055C59.3204 45.6727 55.4106 44.9123 49.2396 45.2555C46.5546 45.4036 43.9637 46.1034 41.6622 47.5974C40.3231 48.4655 39.3338 49.6095 39.105 51.2448C38.5869 54.9729 38.7887 58.6741 39.7309 62.3147C40.0741 63.6539 40.5048 64.9662 40.922 66.3659C36.9853 66.2649 33.4119 67.4359 29.8184 69.0106C32.8197 73.6674 36.5882 76.9917 42.2881 77.6983C40.8211 79.273 39.4281 80.7737 37.9879 82.3215C38.2437 82.4493 38.3648 82.5234 38.4994 82.5705C44.5694 84.8921 50.4038 84.3807 56.0162 81.1169C56.3931 80.9015 56.8439 80.6458 57.241 80.6727C60.525 80.9015 63.6272 80.2622 66.5882 78.8692C67.0795 78.6404 67.4361 78.6741 67.9139 78.9567C71.9247 81.312 76.171 81.8369 80.6259 80.4843C81.3661 80.2622 82.0593 79.8989 83.0418 79.4884C80.3836 76.9379 77.9207 74.5624 75.424 72.1532ZM73.1091 43.7548C73.0216 44.3134 72.9207 44.8719 72.8063 45.3968C72.7524 45.6324 72.6986 45.8679 72.6447 46.09C72.6313 46.1573 72.6111 46.2246 72.5909 46.2919C72.5505 46.4601 72.5034 46.6216 72.4563 46.7764C72.4361 46.8369 72.4227 46.9042 72.4025 46.9648C72.3419 47.1734 72.2746 47.3753 72.2073 47.557C72.0593 47.9742 71.9045 48.3376 71.7363 48.6337C70.8345 48.304 69.9193 47.9675 68.9503 47.6108C69.7578 46.238 70.5317 44.9325 71.3392 43.553C70.747 43.2434 70.2558 42.9877 69.7511 42.7185C68.9301 44.0375 68.1562 45.2622 67.4092 46.4937C67.3486 46.5947 67.2881 46.6754 67.2208 46.7427C67.1871 46.7764 67.1468 46.7898 67.1131 46.8168C66.9381 46.9446 66.7295 46.9783 66.4334 46.884C66.0297 46.7562 65.6192 46.6485 65.1885 46.5408C64.7578 46.4332 64.2935 46.3188 63.7955 46.1909C64.4752 45.3161 65.1683 44.4749 65.8951 43.6674C66.2585 43.2636 66.6286 42.8733 66.9987 42.4897C67.3756 42.1061 67.7591 41.7293 68.1494 41.3659C68.9301 40.6391 69.7511 39.946 70.6057 39.2999C71.4604 38.6539 72.3554 38.0482 73.2975 37.4897C73.3311 37.6108 73.3648 37.7522 73.385 37.9069C73.459 38.378 73.4859 39.0038 73.4725 39.7172C73.4657 39.9392 73.459 40.168 73.4455 40.4036C73.4119 41.0159 73.3581 41.6754 73.2773 42.3417C73.2639 42.4359 73.2571 42.5301 73.2437 42.6243C73.2235 43.0079 73.1696 43.3847 73.1091 43.7548ZM32.5909 69.8585C35.5115 68.7818 38.284 68.0213 41.2316 68.2838C41.5344 68.3107 41.9045 68.5664 42.0795 68.8289C42.4429 69.3605 42.6986 69.9594 43.0754 70.6862C41.6084 70.6862 40.276 70.6862 38.856 70.6862C38.7551 71.2044 38.6474 71.7158 38.5128 72.4089C39.3338 72.4897 40.1077 72.6243 40.8749 72.6243C41.8103 72.6243 42.739 72.5032 43.6744 72.4695C43.9233 72.4628 44.2665 72.5099 44.4146 72.6714C44.9193 73.2367 45.3634 73.8692 45.8211 74.4682C45.0606 75.4439 44.1521 75.8881 42.887 75.8343C38.459 75.6458 35.3769 73.203 32.5909 69.8585ZM41.1912 81.4399C43.1764 79.5422 45.1145 77.6849 47.0929 75.7939C47.8466 76.4264 48.4321 76.911 49.1589 77.5166C48.2908 78.0752 47.4832 78.6001 46.5949 79.1721C46.8372 79.6633 47.0862 80.1613 47.4025 80.8006C48.3244 80.2219 49.2396 79.7239 50.0606 79.098C50.6192 78.6741 51.0431 78.6472 51.642 78.9836C52.3486 79.3807 53.1293 79.6633 53.8762 79.9931C52.2208 81.8908 44.2464 82.8531 41.1912 81.4399ZM62.9678 78.1559C63.4254 77.4359 63.8628 76.7562 64.3675 75.9756C63.8089 75.6795 63.2975 75.4103 62.9005 75.195C61.9516 76.2919 61.1037 77.3484 60.1616 78.3107C59.852 78.627 59.28 78.8423 58.8291 78.8423C54.0579 78.8894 50.2962 76.7225 47.2679 73.2367C43.1158 68.4587 41.1239 62.7791 40.7134 56.5072C40.7067 56.4197 40.7067 56.339 40.7201 56.2515C40.7268 56.1976 40.7605 56.1505 40.8009 56.0631C46.6555 61.4466 53.8291 63.5328 61.3863 64.6835C62.9274 64.919 64.4886 65.0536 66.0431 65.1748C66.5748 65.2151 66.743 65.4574 66.7363 65.915C66.7161 67.3349 66.6824 68.7481 66.6622 70.168C66.6555 70.4103 66.6622 70.6526 66.6622 71.0159C68.7013 69.4614 70.3702 67.7252 71.6219 65.6054C71.7699 65.3497 72.0593 65.0738 72.3285 65.0065C74.4617 64.4816 76.6151 64.0038 78.708 63.526C78.6609 67.6647 68.1158 77.6579 62.9678 78.1559ZM69.2194 77.4964C69.7914 77.0927 70.3231 76.6754 70.8951 76.339C71.0431 76.2515 71.3594 76.3726 71.5546 76.4803C72.2948 76.8975 73.0149 77.3417 73.8359 77.8329C74.132 77.2744 74.4079 76.7696 74.704 76.2044C73.9637 75.7737 73.3311 75.4103 72.5303 74.946C72.9879 74.5422 73.3446 74.1855 73.7551 73.9029C73.9032 73.802 74.2598 73.8154 74.3877 73.9298C76.1575 75.4641 77.9072 77.0321 79.704 78.627C77.315 79.946 71.8103 79.4076 69.2194 77.4964Z" fill="#009296"/>
<path d="M73.2637 42.6313C73.2166 43.0015 73.1695 43.3783 73.1089 43.7552C73.1695 43.3851 73.2233 43.0082 73.2637 42.6313Z" fill="#009296"/>
<path d="M72.4562 46.7764C72.436 46.8369 72.4225 46.9042 72.4023 46.9648C72.4225 46.9042 72.4427 46.8369 72.4562 46.7764Z" fill="#009296"/>
<path d="M72.6447 46.097C72.6312 46.1643 72.611 46.2316 72.5908 46.2989C72.611 46.2249 72.6245 46.1643 72.6447 46.097Z" fill="#009296"/>
<path d="M73.2974 42.3552C73.3781 41.6823 73.432 41.0295 73.4656 40.4171C73.4521 40.693 73.432 40.9689 73.4118 41.2583C73.3848 41.615 73.3445 41.9851 73.2974 42.3552Z" fill="#009296"/>
<path d="M71.7427 48.6342C71.9042 48.3381 72.0657 47.9747 72.2137 47.5575C72.0657 47.9747 71.9109 48.3448 71.7427 48.6342Z" fill="#009296"/>
<path d="M66.4468 46.891C66.7429 46.9852 66.9515 46.9516 67.1265 46.8237C67.0188 46.8978 66.9044 46.9516 66.7631 46.9516C66.6689 46.9516 66.5679 46.9314 66.4468 46.891Z" fill="#009296"/>
<path d="M71.3523 43.5531C70.5381 44.9326 69.7709 46.2382 68.9634 47.611C69.1653 47.2678 69.3604 46.9313 69.5623 46.5948C70.1545 45.5921 70.7467 44.5894 71.3523 43.5531Z" fill="#009296"/>
<path d="M65.2017 46.5477C65.6323 46.6554 66.0428 46.7631 66.4466 46.8909C66.2447 46.8304 66.0428 46.7698 65.8342 46.716C65.6256 46.6554 65.417 46.6016 65.2017 46.5477Z" fill="#009296"/>
<path d="M68.9634 47.6178C69.9324 47.9745 70.8476 48.3109 71.7494 48.6407C71.2985 48.4724 70.8409 48.3109 70.3833 48.136C69.9122 47.9677 69.4479 47.7928 68.9634 47.6178Z" fill="#009296"/>
<path d="M72.2139 47.5572C72.2812 47.3687 72.3417 47.1669 72.409 46.965C72.3417 47.1736 72.2812 47.3687 72.2139 47.5572Z" fill="#009296"/>
<path d="M72.463 46.7768C72.5101 46.622 72.5504 46.4605 72.5975 46.2922C72.5504 46.4605 72.5033 46.622 72.463 46.7768Z" fill="#009296"/>
<path d="M72.4023 46.9648C72.4225 46.9042 72.436 46.8437 72.4562 46.7764C72.4427 46.8369 72.4225 46.9042 72.4023 46.9648Z" fill="#009296"/>
<path d="M65.9082 43.6809C65.1814 44.4884 64.4883 45.3296 63.8086 46.2045C64.1922 45.7065 64.5892 45.222 64.9863 44.7509C65.2891 44.3808 65.5919 44.0241 65.9082 43.6809Z" fill="#009296"/>
<path d="M67.0118 42.4965C66.635 42.88 66.2649 43.2703 65.9082 43.6741C66.0832 43.479 66.2649 43.2905 66.4466 43.1021C66.6283 42.907 66.8167 42.6983 67.0118 42.4965Z" fill="#009296"/>
<path d="M68.1627 41.3799C67.7724 41.7433 67.3888 42.1201 67.012 42.5037C66.8168 42.6989 66.6284 42.9075 66.4399 43.1094C66.9985 42.5104 67.5705 41.9317 68.1627 41.3799Z" fill="#009296"/>
<path d="M64.9863 44.7444C64.5892 45.2222 64.1922 45.7 63.8086 46.198C64.1922 45.7 64.5825 45.2222 64.9863 44.7444Z" fill="#009296"/>
</svg>
