<svg width="105" height="39" viewBox="0 0 105 39" fill="none" xmlns="http://www.w3.org/2000/svg">
<path d="M13.0801 23.3326C10.8314 23.3326 9.74782 22.3156 9.74782 20.3146V14.8105C9.74782 12.8896 10.8314 11.7925 13.0801 11.7925C15.3288 11.7925 16.374 12.8848 16.374 14.8105V20.3146C16.3692 22.3109 15.3288 23.3326 13.0801 23.3326ZM12.5575 37.4905V35.2258C12.5575 34.6985 12.1547 34.3218 11.5554 34.3218H9.74782V25.7809C10.9513 26.8356 12.5958 27.4006 14.6479 27.4006C19.2268 27.4006 22.9186 24.6839 22.9186 19.7825V15.2955C22.9186 10.3565 19.1836 7.56445 14.3267 7.56445C11.3972 7.56445 9.18685 8.61912 7.9834 10.5825L5.69637 8.43078C4.77101 7.56445 3.48605 7.48912 2.52713 8.39312L1.36204 9.48545C0.398318 10.3894 0.479826 11.5618 1.44354 12.4658L3.28947 14.1985V34.3171H1.68328C1.07915 34.3171 0.681201 34.6938 0.681201 35.2211V37.4858C0.681201 38.0508 1.08395 38.4274 1.68328 38.4274H11.5602C12.1643 38.4274 12.5623 38.2532 12.5623 37.6882" fill="#009296"/>
<path d="M103.09 27.6076C103.818 27.6076 104.264 27.1885 104.264 26.4258V24.4012C104.264 23.7891 103.818 23.4077 103.171 23.4077H101.311C100.136 23.4077 99.6902 22.951 99.6902 21.7645V12.3385H103.171C103.78 12.3385 104.264 11.9571 104.264 11.345V9.1698C104.264 8.59538 103.78 8.17634 103.171 8.17634H99.6519V4.53211C99.6519 3.19494 98.8032 2.39453 97.4655 2.39453H95.3991C94.023 2.39453 93.1744 3.19494 93.1744 4.53211V8.17634H91.0312C90.3839 8.17634 89.938 8.59538 89.938 9.1698V11.345C89.938 11.9571 90.3839 12.3385 91.0312 12.3385H93.1744V21.8399C93.1744 25.809 94.8333 27.6028 99.8533 27.6028L103.09 27.6076Z" fill="#009296"/>
<path d="M77.1408 14.9655C77.1408 12.8797 78.2052 11.858 80.3772 11.858C82.5108 11.858 83.4601 12.6537 83.4601 14.3581V15.0032C83.4601 15.6105 83.8533 15.9872 84.4478 15.9872H88.437C89.1082 15.9872 89.5014 15.5729 89.5014 14.9655V14.3205C89.5014 9.99824 86.1068 7.72412 80.3388 7.72412C74.3743 7.72412 70.7017 10.6056 70.7017 15.5682V20.0787C70.7017 25.079 74.3743 27.9228 80.3388 27.9228C86.1068 27.9228 89.5014 25.6487 89.5014 21.3264V20.5684C89.5014 19.961 89.1082 19.5467 88.437 19.5467H84.4478C83.8533 19.5467 83.4601 19.9234 83.4601 20.5307V21.3264C83.4601 22.9932 82.5108 23.7889 80.3772 23.7889C78.2052 23.7889 77.1408 22.7672 77.1408 20.7191V14.9655Z" fill="#009296"/>
<path d="M68.9375 23.0781L67.2211 21.4396V14.2029C67.2211 10.2056 63.9463 7.729 58.0394 7.729C52.2906 7.729 49.3371 9.8242 49.3371 13.3272V13.7462C49.3371 14.2783 49.6152 14.5843 50.1762 14.5843H54.4866C55.0044 14.5843 55.2441 14.2783 55.2441 13.8592V13.4779C55.2441 12.3714 56.0017 11.7264 58.0394 11.7264C60.0339 11.7264 60.873 12.3714 60.873 13.7839V16.5618C59.6743 16.2934 58.2791 16.1051 56.6825 16.1051C50.8954 16.1051 48.5796 18.125 48.5796 21.8163V22.273C48.5796 25.8513 51.3748 28.0218 56.4428 28.0218C59.3579 28.0218 61.4723 26.8777 62.6278 25.1639L64.7039 27.1461C65.6628 28.0595 66.8998 28.0972 67.8587 27.1838L69.0142 26.0773C69.9732 25.1686 69.8917 23.9915 68.9375 23.0781ZM60.873 21.5526C60.873 23.0781 59.5976 24.1045 57.7996 24.1045C55.7236 24.1045 54.8078 23.2664 54.8078 21.8963V21.5149C54.8078 20.1448 55.6469 19.3067 57.9195 19.3067C58.9551 19.3067 59.9141 19.4197 60.873 19.6881V21.5526Z" fill="#009296"/>
<path d="M23.0864 4.0942C23.0864 4.63565 23.5131 4.96524 24.0453 4.96524H25.6851V23.5913H24.0453C23.5131 23.5913 23.0864 23.9162 23.0864 24.4624V26.7082C23.0864 27.2497 23.5131 27.6122 24.0453 27.6122H33.2654C33.836 27.6122 34.2291 27.2497 34.2291 26.7082V24.4624C34.2291 23.9209 33.836 23.5913 33.2654 23.5913H31.664V15.3565H39.4265V23.5866H37.7532C37.2545 23.5866 36.8278 23.9115 36.8278 24.4577V26.7035C36.8278 27.245 37.2545 27.6075 37.7532 27.6075H47.0116C47.5821 27.6075 47.9705 27.245 47.9705 26.7035V24.4577C47.9705 23.9162 47.5773 23.5866 47.0116 23.5866H45.4102V4.96053H47.0116C47.5821 4.96053 47.9705 4.63565 47.9705 4.08949V1.84833C47.9705 1.30688 47.5773 0.944336 47.0116 0.944336H37.7532C37.2545 0.944336 36.8278 1.30688 36.8278 1.84833V4.0942C36.8278 4.63565 37.2545 4.96524 37.7532 4.96524H39.4265V11.265H31.664V4.96053H33.2654C33.836 4.96053 34.2291 4.63565 34.2291 4.08949V1.84833C34.2291 1.30688 33.836 0.944336 33.2654 0.944336H24.0453C23.5131 0.944336 23.0864 1.30688 23.0864 1.84833V4.0942Z" fill="#009296"/>
<path d="M101.412 20.2437H100.851V20.0601H102.164V20.2437H101.603V21.8068H101.416V20.2437H101.412Z" fill="#009296"/>
<path d="M102.51 20.0601H102.702L103.31 21.0111L103.919 20.0601H104.111V21.8068H103.924V20.3943L103.315 21.3313H103.306L102.697 20.3991V21.8116H102.515V20.0601H102.51Z" fill="#009296"/>
</svg>
