<svg width="120" height="120" viewBox="0 0 120 120" fill="none" xmlns="http://www.w3.org/2000/svg">
<path d="M103.364 60.383C103.365 68.838 100.859 77.1036 96.1625 84.1343C91.4661 91.165 84.7901 96.645 76.9789 99.8812C69.1678 103.117 60.5724 103.965 52.2797 102.315C43.9871 100.666 36.3698 96.595 30.3912 90.6164C24.4126 84.6378 20.3413 77.0205 18.6921 68.7279C17.043 60.4352 17.8901 51.8398 21.1264 44.0286C24.3626 36.2175 29.8426 29.5415 36.8733 24.8451C43.904 20.1486 52.1695 17.6426 60.6246 17.644C71.9597 17.644 82.8305 22.1469 90.8456 30.162C98.8607 38.1771 103.364 49.0479 103.364 60.383Z" stroke="white" stroke-width="1.35" stroke-miterlimit="10"/>
<path d="M31.778 65.5025C31.0626 65.5013 30.3538 65.3664 29.688 65.1048C28.996 64.8281 28.3791 64.392 27.8874 63.832C27.3079 63.1536 26.879 62.3599 26.629 61.5034C26.2969 60.3449 26.1409 59.1431 26.1662 57.9382C26.1582 56.7685 26.2967 55.6023 26.5784 54.467C26.804 53.54 27.1934 52.6608 27.7283 51.8709C28.1877 51.1905 28.8057 50.6321 29.5289 50.2437C30.2528 49.862 31.0609 49.668 31.8792 49.6797C32.7439 49.6627 33.5984 49.8695 34.3597 50.2799C35.0636 50.6676 35.66 51.2243 36.0953 51.8998C36.5321 52.5926 36.8019 53.3773 36.8835 54.1922H33.9547C33.8668 53.6996 33.6113 53.2525 33.2315 52.9267C32.8475 52.617 32.3651 52.4554 31.872 52.4711C31.4354 52.4644 31.0063 52.5844 30.6366 52.8168C30.2669 53.0491 29.9726 53.3837 29.7893 53.78C29.2681 54.8914 29.0202 56.1113 29.0661 57.338H29.1674C29.3682 56.893 29.6587 56.4941 30.0207 56.1665C30.3786 55.8503 30.7934 55.6049 31.2428 55.4433C31.7054 55.2704 32.1953 55.1823 32.6892 55.183C33.4768 55.1717 34.2498 55.3958 34.9093 55.8266C35.5683 56.2678 36.0975 56.8769 36.4424 57.5911C36.8302 58.3904 37.0235 59.2701 37.0065 60.1583C37.0212 61.1266 36.795 62.0833 36.3484 62.9425C35.9239 63.7366 35.2849 64.3956 34.5043 64.8444C33.6719 65.3066 32.7296 65.5341 31.778 65.5025ZM31.778 62.9497C32.2148 62.9558 32.6433 62.8297 33.0074 62.5882C33.3693 62.3417 33.6609 62.0052 33.8535 61.6119C34.0561 61.1796 34.1611 60.708 34.1611 60.2306C34.1611 59.7532 34.0561 59.2817 33.8535 58.8494C33.6633 58.4587 33.3741 58.1246 33.0146 57.8804C32.6542 57.6368 32.2273 57.5105 31.7924 57.5188C31.4645 57.5126 31.1398 57.5845 30.8451 57.7285C30.5501 57.8658 30.2885 58.0657 30.0786 58.3143C29.8605 58.5718 29.6892 58.8655 29.5723 59.1821C29.4475 59.5175 29.3838 59.8727 29.3843 60.2306C29.3755 60.7024 29.4823 61.1692 29.6953 61.5902C29.8903 61.988 30.1841 62.3291 30.5486 62.5809C30.9059 62.826 31.3302 62.9548 31.7635 62.9497H31.778Z" fill="white"/>
<path d="M44.6366 65.6333C43.5473 65.6543 42.4808 65.3191 41.5993 64.6788C40.6966 63.9706 40.0184 63.0162 39.6468 61.9307C39.1589 60.5376 38.9286 59.0673 38.967 57.5918C38.9323 56.13 39.1652 54.6742 39.654 53.2962C40.023 52.2233 40.7026 51.2844 41.6066 50.5988C42.5016 49.9913 43.5585 49.6665 44.6402 49.6665C45.722 49.6665 46.7788 49.9913 47.6739 50.5988C48.5722 51.2929 49.2504 52.2323 49.6264 53.3034C50.1168 54.6784 50.3473 56.1325 50.3062 57.5918C50.3443 59.0673 50.114 60.5375 49.6264 61.9307C49.2548 63.0162 48.5766 63.9706 47.6739 64.6788C46.7943 65.323 45.7266 65.6586 44.6366 65.6333ZM44.6366 62.9359C45.0521 62.9225 45.455 62.7899 45.7973 62.554C46.1396 62.3181 46.4069 61.9888 46.5674 61.6053C47.1232 60.3488 47.3712 58.9778 47.2906 57.6062C47.3105 56.6318 47.2011 55.6591 46.9652 54.7136C46.8153 54.0585 46.499 53.4533 46.0468 52.9563C45.8658 52.7693 45.6488 52.621 45.4089 52.5203C45.169 52.4197 44.9112 52.3687 44.6511 52.3705C44.2397 52.3855 43.841 52.5172 43.5017 52.7502C43.1624 52.9833 42.8963 53.3081 42.7347 53.6867C42.1823 54.9238 41.9344 56.2753 42.0115 57.6279C41.9901 58.6262 42.0995 59.623 42.3369 60.5929C42.4859 61.254 42.805 61.8648 43.2626 62.3646C43.4424 62.546 43.6565 62.6899 43.8924 62.788C44.1282 62.886 44.3812 62.9363 44.6366 62.9359Z" fill="white"/>
<path d="M61.9705 65.2933H56.9951V49.8899H62.0139C63.2811 49.8618 64.5318 50.182 65.6297 50.8155C66.6615 51.4402 67.4826 52.3595 67.9872 53.4551C68.5314 54.7637 68.8116 56.167 68.8116 57.5843C68.8116 59.0016 68.5314 60.405 67.9872 61.7136C67.485 62.8168 66.6606 63.742 65.6225 64.3676C64.513 65.0051 63.2497 65.3254 61.9705 65.2933ZM59.9673 62.5019H61.8258C62.5984 62.5316 63.3649 62.3543 64.046 61.9884C64.6668 61.6247 65.1461 61.0613 65.4055 60.3902C65.7386 59.491 65.8933 58.5355 65.8611 57.5771C65.8929 56.6258 65.7382 55.6775 65.4055 54.7857C65.1462 54.1164 64.6667 53.5553 64.046 53.1947C63.3632 52.834 62.5975 52.6594 61.8258 52.6885H59.9384L59.9673 62.5019Z" fill="white"/>
<path d="M72.6624 65.293H69.4805L74.3257 49.8896H78.1512L82.9964 65.293H79.8145L76.3216 53.4115H76.2131L72.6624 65.293ZM72.4599 59.2402H79.9736V61.7785H72.4888L72.4599 59.2402Z" fill="white"/>
<path d="M82.4971 49.8896H85.8236L89.02 56.5283H89.1574L92.361 49.8896H95.6876L90.5603 59.8476V65.293H87.6171V59.8476L82.4971 49.8896Z" fill="white"/>
<path d="M30.5416 62.5802C30.1771 62.3284 29.8833 61.9872 29.6883 61.5894C29.4753 61.1684 29.3686 60.7016 29.3774 60.2299C29.3768 59.8719 29.4405 59.5168 29.5654 59.1813C29.6822 58.8647 29.8535 58.571 30.0716 58.3135C30.2804 58.0667 30.5392 57.8671 30.8309 57.7277C31.1284 57.5844 31.4553 57.5126 31.7855 57.518C32.2183 57.5089 32.6431 57.6353 33.0004 57.8796C33.3637 58.1215 33.6558 58.4561 33.8465 58.8486C34.0491 59.2809 34.1542 59.7525 34.1542 60.2299C34.1542 60.7073 34.0491 61.1788 33.8465 61.6111C33.6539 62.0044 33.3624 62.3409 33.0004 62.5874C32.6364 62.829 32.2079 62.955 31.771 62.949C31.3328 62.9571 30.903 62.8281 30.5416 62.5802ZM34.5263 64.822C35.3052 64.371 35.9436 63.7126 36.3703 62.92C36.817 62.0608 37.0432 61.1041 37.0284 60.1359C37.0455 59.2476 36.8522 58.3679 36.4644 57.5686C36.1195 56.8545 35.5902 56.2453 34.9313 55.8041C34.2718 55.3733 33.4987 55.1492 32.7111 55.1605C32.2173 55.1598 31.7274 55.248 31.2648 55.4208C30.8153 55.5824 30.4006 55.8278 30.0427 56.144C29.6807 56.4717 29.3902 56.8705 29.1893 57.3155H29.0881C29.0422 56.0888 29.2901 54.869 29.8113 53.7576C29.9945 53.3613 30.2889 53.0266 30.6585 52.7943C31.0282 52.562 31.4574 52.4419 31.894 52.4486C32.3871 52.4329 32.8695 52.5945 33.2535 52.9042C33.6333 53.23 33.8888 53.6771 33.9767 54.1698H36.9055C36.8239 53.3549 36.554 52.5701 36.1173 51.8773C35.682 51.2018 35.0856 50.6451 34.3816 50.2575C33.6204 49.847 32.7659 49.6402 31.9012 49.6572C31.0829 49.6456 30.2748 49.8395 29.5509 50.2213C28.8276 50.6096 28.2096 51.168 27.7502 51.8484C27.2153 52.6384 26.8259 53.5176 26.6004 54.4446C26.3187 55.5799 26.1802 56.746 26.1882 57.9158C26.1629 59.1206 26.3189 60.3225 26.651 61.481C26.901 62.3374 27.3299 63.1311 27.9093 63.8095C28.4011 64.3695 29.018 64.8056 29.71 65.0823C30.3758 65.3439 31.0846 65.4788 31.8 65.48C32.7515 65.5109 33.6936 65.2835 34.5263 64.822Z" stroke="white" stroke-width="0.53" stroke-miterlimit="10"/>
<path d="M43.2548 62.3431C42.7999 61.8424 42.4833 61.2317 42.3364 60.5713C42.0989 59.6014 41.9895 58.6046 42.011 57.6063C41.9344 56.2537 42.1824 54.9024 42.7342 53.6651C42.8963 53.2854 43.1635 52.9599 43.5042 52.7268C43.8449 52.4936 44.2451 52.3625 44.6578 52.3489C44.9179 52.3471 45.1758 52.3981 45.4157 52.4988C45.6556 52.5994 45.8725 52.7477 46.0535 52.9347C46.5031 53.4335 46.819 54.0381 46.9719 54.692C47.2078 55.6376 47.3172 56.6103 47.2973 57.5846C47.3784 58.9562 47.1305 60.3274 46.5742 61.5837C46.4141 61.9661 46.1479 62.2947 45.807 62.5305C45.4661 62.7663 45.0648 62.8995 44.6505 62.9144C44.3916 62.9168 44.1347 62.8676 43.8951 62.7695C43.6554 62.6714 43.4377 62.5264 43.2548 62.3431ZM47.6951 64.6861C48.5975 63.9793 49.2737 63.0241 49.6404 61.9381C50.1428 60.5476 50.3879 59.0773 50.3635 57.5991C50.4009 56.1401 50.1705 54.6866 49.6838 53.3107C49.3076 52.2377 48.6265 51.2978 47.724 50.6061C46.8289 49.9986 45.7721 49.6738 44.6903 49.6738C43.6085 49.6738 42.5517 49.9986 41.6566 50.6061C40.7555 51.2944 40.0765 52.2324 39.7041 53.3035C38.8024 56.1061 38.8024 59.121 39.7041 61.9236C40.0758 63.009 40.7539 63.9635 41.6566 64.6716C42.542 65.3097 43.61 65.6445 44.7012 65.6262C45.7747 65.6461 46.8256 65.3161 47.6951 64.6861Z" stroke="white" stroke-width="0.53" stroke-miterlimit="10"/>
<path d="M60.0031 52.6875H61.8977C62.6675 52.6635 63.4301 52.8404 64.1106 53.2009C64.729 53.5622 65.2059 54.1233 65.4629 54.7919C65.7956 55.6837 65.9504 56.632 65.9185 57.5833C65.9508 58.5417 65.796 59.4972 65.4629 60.3964C65.2035 61.0675 64.7242 61.6309 64.1034 61.9946C63.4244 62.3592 62.6606 62.5364 61.8905 62.508H60.0031V52.6875ZM65.6871 64.3738C66.7253 63.7482 67.5497 62.8229 68.0519 61.7198C68.6008 60.4123 68.8836 59.0085 68.8836 57.5905C68.8836 56.1725 68.6008 54.7687 68.0519 53.4612C67.55 52.3662 66.7313 51.4468 65.7016 50.8217C64.593 50.1821 63.329 49.8617 62.0496 49.8961H57.0381V65.2994H62.0135C63.3008 65.3349 64.5727 65.0119 65.6871 64.3665V64.3738Z" stroke="white" stroke-width="0.53" stroke-miterlimit="10"/>
<path d="M72.5938 61.9293L80.1002 61.8208V59.2753L72.5865 59.391L72.5938 61.9293ZM76.2096 53.5044H76.2891L79.9845 65.3354L83.1664 65.2848L78.1043 49.9609L74.2787 50.0115L69.6577 65.4873L72.8397 65.4439L76.2096 53.5044Z" stroke="white" stroke-width="0.53" stroke-miterlimit="10"/>
<path d="M87.6713 59.768L87.7508 65.2134L90.7013 65.17L90.6146 59.7246L95.5899 49.6943L92.2634 49.745L89.161 56.427H89.0236L85.726 49.839L82.3994 49.8896L87.6713 59.768Z" stroke="white" stroke-width="0.53" stroke-miterlimit="10"/>
<path d="M6.84143 52.9625C6.80543 53.2246 6.72362 53.4808 6.596 53.731C6.46838 53.9812 6.27795 54.1999 6.02471 54.3872C5.76938 54.5742 5.43907 54.7081 5.03377 54.7888C4.62639 54.8692 4.12702 54.871 3.53566 54.7941C2.96929 54.7205 2.47391 54.6021 2.04952 54.4389C1.62305 54.2755 1.27215 54.0732 0.996817 53.832C0.7194 53.5906 0.519914 53.3169 0.398361 53.011C0.277061 52.7031 0.238266 52.3688 0.281978 52.0082C0.325437 51.6496 0.435933 51.34 0.613466 51.0794C0.789169 50.8164 1.01478 50.6128 1.29029 50.4686C1.5658 50.3245 1.87225 50.2479 2.20965 50.2388L2.11717 51.0017C1.82123 51.0352 1.56613 51.1418 1.35189 51.3215C1.13764 51.5011 1.01005 51.7598 0.96912 52.0975C0.908985 52.5936 1.07712 53.0125 1.47353 53.3541C1.8702 53.6936 2.45778 53.915 3.23629 54.0183L3.24235 53.9683C3.07951 53.8286 2.94535 53.6703 2.83987 53.4936C2.73256 53.3145 2.65643 53.1225 2.61146 52.9176C2.5665 52.7127 2.55728 52.5009 2.58381 52.282C2.62828 51.9151 2.76058 51.5914 2.98071 51.3109C3.19876 51.0301 3.47923 50.8188 3.82213 50.6771C4.16295 50.5351 4.5395 50.4909 4.95179 50.5445C5.34741 50.5959 5.69899 50.7316 6.00651 50.9515C6.31194 51.1712 6.54203 51.4541 6.69677 51.8003C6.84968 52.1442 6.8979 52.5316 6.84143 52.9625ZM6.15429 52.8732C6.18612 52.6105 6.14909 52.3665 6.04317 52.141C5.93751 51.9134 5.78165 51.7248 5.57558 51.5752C5.36977 51.4235 5.13152 51.3301 4.86083 51.2949C4.59638 51.2605 4.34868 51.2886 4.11772 51.3793C3.88494 51.4676 3.69149 51.6066 3.53737 51.7961C3.38351 51.9836 3.29066 52.2087 3.25883 52.4714C3.23482 52.6694 3.25203 52.859 3.31043 53.0402C3.36676 53.2212 3.45476 53.3851 3.57444 53.5319C3.69437 53.6767 3.83737 53.7969 4.00344 53.8926C4.16742 53.988 4.3452 54.0482 4.53677 54.0731C4.7908 54.1061 5.03538 54.0775 5.2705 53.9874C5.50587 53.8952 5.70386 53.7537 5.86448 53.5628C6.02534 53.3699 6.12195 53.14 6.15429 52.8732Z" fill="white"/>
<path d="M7.72277 47.8794C7.61816 48.3454 7.40219 48.7141 7.07484 48.9856C6.74544 49.2566 6.3189 49.4249 5.79523 49.4903C5.26949 49.5553 4.66211 49.5113 3.97309 49.3582C3.2882 49.206 2.72279 48.9894 2.27689 48.7085C1.82938 48.425 1.51452 48.0909 1.33231 47.7062C1.14851 47.319 1.10845 46.8945 1.21214 46.4326C1.31582 45.9707 1.5334 45.6045 1.86486 45.334C2.19473 45.0609 2.62253 44.8919 3.14827 44.8269C3.6724 44.7593 4.27692 44.8017 4.96182 44.9539C5.65084 45.107 6.21933 45.3242 6.66731 45.6056C7.11321 45.8866 7.42727 46.2194 7.60948 46.6041C7.78962 46.9883 7.82739 47.4134 7.72277 47.8794ZM7.042 47.7281C7.14569 47.2663 7.00343 46.858 6.61524 46.5033C6.22704 46.1486 5.62035 45.8795 4.79518 45.6962C4.24644 45.5742 3.76599 45.5291 3.35383 45.5609C2.94214 45.5907 2.61068 45.6924 2.35944 45.866C2.10867 46.0376 1.94903 46.276 1.88053 46.5811C1.77777 47.0389 1.92335 47.4468 2.31727 47.805C2.70913 48.1627 3.31662 48.433 4.13973 48.6159C4.68847 48.7378 5.16766 48.7837 5.57729 48.7535C5.98692 48.7233 6.31608 48.6222 6.56479 48.4501C6.81396 48.276 6.97303 48.0354 7.042 47.7281Z" fill="white"/>
<path d="M6.36879 41.3113L7.02898 41.5176L6.18069 44.2039L5.52051 43.9976L6.36879 41.3113Z" fill="white"/>
<path d="M10.2347 39.8392L9.47544 41.6774L3.53223 39.1851L4.3251 37.2655C4.56376 36.6877 4.88697 36.2431 5.29472 35.9318C5.70053 35.6198 6.1702 35.4471 6.70373 35.4137C7.23533 35.3796 7.80874 35.4915 8.42396 35.7495C9.04304 36.0092 9.53038 36.3432 9.88599 36.7516C10.2397 37.1593 10.4491 37.6248 10.5144 38.1481C10.5778 38.6705 10.4846 39.2343 10.2347 39.8392ZM9.13494 40.6883L9.57703 39.618C9.78045 39.1255 9.85424 38.6776 9.79839 38.2743C9.74255 37.871 9.57237 37.5164 9.28787 37.2106C9.00338 36.9047 8.6193 36.6504 8.13564 36.4476C7.65585 36.2464 7.21037 36.1517 6.79919 36.1635C6.38609 36.1745 6.0222 36.2972 5.70753 36.5315C5.39093 36.765 5.13652 37.1144 4.94431 37.5797L4.46859 38.7315L9.13494 40.6883Z" fill="white"/>
<path d="M12.2396 35.3692L11.8295 36.0827L7.3794 30.8167L7.78316 30.1141L14.6054 31.2528L14.1953 31.9663L8.48556 30.9501L8.46033 30.994L12.2396 35.3692ZM10.1894 33.8548L11.8423 30.9788L12.4477 31.3228L10.7948 34.1988L10.1894 33.8548Z" fill="white"/>
<path d="M9.50391 27.2651L10.0249 26.5376L13.5119 26.8417L13.5559 26.7803L12.1528 23.5659L12.6737 22.8383L14.3957 26.9497L16.5543 28.5029L16.0994 29.1382L13.9407 27.585L9.50391 27.2651Z" fill="white"/>
<path d="M16 19.0571L16.6694 18.4064L21.9809 20.7205L22.0351 20.6677L19.8715 15.2932L20.5409 14.6424L25.0435 19.2737L24.5189 19.7838L21.0979 16.2651L21.0527 16.309L23.0264 21.2348L22.5198 21.7273L17.6516 19.6157L17.6063 19.6597L21.0273 23.1784L20.5027 23.6885L16 19.0571Z" fill="white"/>
<path d="M28.4952 12.6974C28.901 13.2453 29.1522 13.7913 29.2488 14.3353C29.3454 14.8794 29.3004 15.386 29.1137 15.8552C28.927 16.3244 28.6109 16.7214 28.1652 17.046C27.7195 17.3706 27.243 17.5511 26.7357 17.5874C26.2283 17.6237 25.7273 17.5148 25.2327 17.2607C24.738 17.0066 24.2878 16.6055 23.8819 16.0576C23.4761 15.5097 23.2248 14.9638 23.1282 14.4197C23.0316 13.8757 23.0767 13.369 23.2634 12.8998C23.45 12.4306 23.7662 12.0337 24.2119 11.709C24.6576 11.3844 25.1341 11.2039 25.6414 11.1676C26.1488 11.1313 26.6498 11.2402 27.1444 11.4944C27.6391 11.7485 28.0893 12.1495 28.4952 12.6974ZM27.8828 13.1434C27.5496 12.6936 27.1927 12.3691 26.812 12.1699C26.4331 11.9695 26.0564 11.8834 25.6817 11.9115C25.3088 11.9384 24.9642 12.0671 24.6478 12.2975C24.3314 12.528 24.1037 12.8162 23.9645 13.1623C23.8271 13.5071 23.7974 13.8894 23.8752 14.3091C23.9547 14.7276 24.1611 15.1618 24.4943 15.6116C24.8275 16.0614 25.1836 16.3865 25.5625 16.587C25.9431 16.7862 26.3199 16.8723 26.6928 16.8454C27.0674 16.8173 27.4129 16.688 27.7293 16.4575C28.0457 16.2271 28.2726 15.9394 28.41 15.5946C28.5491 15.2485 28.5789 14.8663 28.4993 14.4478C28.4215 14.028 28.216 13.5933 27.8828 13.1434Z" fill="white"/>
<path d="M33.1137 6.27297L36.2519 11.9089L35.5932 12.2799L30.0665 9.5798L30.0116 9.61071L32.4755 14.0358L31.7949 14.4191L28.6567 8.7832L29.3154 8.41223L34.8593 11.1171L34.9141 11.0862L32.444 6.65012L33.1137 6.27297Z" fill="white"/>
<path d="M37.603 11.2692L35.1699 5.25049L38.7968 3.76852L39.0582 4.41507L36.159 5.59968L36.9811 7.63337L39.6925 6.52549L39.9539 7.17204L37.2425 8.27991L38.0694 10.3254L41.0155 9.12155L41.2769 9.7681L37.603 11.2692Z" fill="white"/>
<path d="M41.0781 3.05225L41.9386 2.81025L44.4663 5.22483L44.539 5.20438L45.453 1.82181L46.3135 1.57981L45.0876 5.86088L45.7999 8.41988L45.0485 8.6312L44.3362 6.0722L41.0781 3.05225Z" fill="white"/>
<path d="M50.9125 4.12382L51.0432 4.80455L48.2718 5.34186L48.1411 4.66113L50.9125 4.12382Z" fill="white"/>
<path d="M52.06 7.02045L51.4199 0.555664L53.6799 0.329671C54.1302 0.284641 54.5093 0.325365 54.8172 0.451844C55.1249 0.576218 55.3632 0.761725 55.5321 1.00837C55.7008 1.2529 55.8008 1.533 55.832 1.84866C55.8596 2.12645 55.8328 2.36077 55.7518 2.55164C55.673 2.7423 55.5588 2.89824 55.4093 3.01945C55.2619 3.14046 55.0981 3.23547 54.9179 3.30449L54.9242 3.36763C55.1232 3.36047 55.3289 3.41003 55.5413 3.51631C55.7537 3.62258 55.9389 3.78684 56.0969 4.00906C56.255 4.23129 56.3508 4.51287 56.3846 4.85378C56.4167 5.17786 56.3719 5.47669 56.2502 5.75026C56.1286 6.02384 55.9164 6.25227 55.6136 6.43556C55.3109 6.61886 54.9049 6.73596 54.3957 6.78688L52.06 7.02045ZM52.774 6.24772L54.3269 6.09243C54.8382 6.04129 55.1914 5.90609 55.3865 5.68681C55.5834 5.46521 55.6678 5.21237 55.6397 4.92827C55.618 4.70941 55.5423 4.51296 55.4124 4.33893C55.2823 4.16278 55.1087 4.02926 54.8914 3.93835C54.674 3.84533 54.4242 3.81292 54.1423 3.84111L52.5515 4.00019L52.774 6.24772ZM52.484 3.31836L53.9359 3.17317C54.1716 3.1496 54.3795 3.08205 54.5597 2.97052C54.742 2.85878 54.8806 2.71315 54.9755 2.53364C55.0724 2.35393 55.1097 2.15043 55.0872 1.92315C55.059 1.63906 54.9363 1.40799 54.7189 1.22995C54.5013 1.04981 54.1779 0.981205 53.7486 1.02413L52.2714 1.17185L52.484 3.31836Z" fill="white"/>
<path d="M58.9045 6.49735L58.0838 6.46452L60.7135 0.0949462L61.5216 0.127268L63.6392 6.68674L62.8185 6.65391L61.1023 1.13483L61.0518 1.13281L58.9045 6.49735ZM59.3075 3.98427L62.6155 4.11659L62.588 4.81102L59.28 4.6787L59.3075 3.98427Z" fill="white"/>
<path d="M71.0571 3.16663L70.2821 3.04922C70.2697 2.81933 70.2189 2.61132 70.1297 2.42519C70.0425 2.23937 69.9263 2.07685 69.781 1.93763C69.6381 1.79665 69.4731 1.68215 69.286 1.59414C69.0989 1.50613 68.8992 1.44603 68.6867 1.41383C68.2992 1.35513 67.9335 1.39987 67.5896 1.54807C67.2477 1.69659 66.9555 1.94745 66.7129 2.30066C66.4724 2.65419 66.3106 3.10807 66.2274 3.66231C66.1443 4.21655 66.1658 4.69821 66.2919 5.10729C66.4201 5.51668 66.6258 5.84298 66.9089 6.08618C67.194 6.3297 67.5304 6.48082 67.9178 6.53952C68.1303 6.57172 68.3388 6.57348 68.5434 6.54481C68.748 6.51614 68.9391 6.45665 69.1166 6.36636C69.2966 6.27429 69.4555 6.1524 69.5933 6.00067C69.7335 5.84717 69.8431 5.66346 69.9221 5.44954L70.697 5.56696C70.5896 5.88525 70.4395 6.1619 70.2466 6.39691C70.0536 6.63192 69.829 6.82271 69.5727 6.96926C69.3167 7.11373 69.0389 7.21123 68.7395 7.26175C68.4421 7.31259 68.132 7.31354 67.8091 7.26462C67.2633 7.18193 66.7979 6.97503 66.413 6.64394C66.028 6.31285 65.7505 5.88298 65.5806 5.35432C65.4106 4.82565 65.3762 4.22378 65.4775 3.54869C65.5788 2.87359 65.7882 2.30865 66.1056 1.85384C66.4231 1.39904 66.8144 1.07048 67.2793 0.868164C67.7443 0.66585 68.2497 0.60604 68.7955 0.688735C69.1183 0.737657 69.4144 0.830462 69.6837 0.967151C69.955 1.10415 70.1916 1.28065 70.3936 1.49665C70.5958 1.71056 70.7547 1.95837 70.8701 2.2401C70.9858 2.51974 71.0481 2.82858 71.0571 3.16663Z" fill="white"/>
<path d="M71.7384 7.8931L73.4668 1.68359L74.2182 1.89492L73.3607 4.97542L73.4334 4.99587L77.0782 2.6993L78.0598 2.97539L74.6745 5.04413L76.3314 9.18489L75.4225 8.92926L74.0688 5.43611L73.0501 6.09119L72.4897 8.10443L71.7384 7.8931Z" fill="white"/>
<path d="M86.626 8.70128C86.6562 8.47915 86.6569 8.26722 86.628 8.06549C86.602 7.86279 86.5451 7.67314 86.4573 7.49653C86.3714 7.32085 86.2542 7.16152 86.1056 7.01855C85.9571 6.87558 85.7778 6.75273 85.5677 6.65001C85.2232 6.48158 84.8668 6.41758 84.4985 6.458C84.1303 6.49842 83.7789 6.65148 83.4445 6.91718C83.1101 7.18288 82.8209 7.56803 82.5769 8.07261C82.3329 8.57719 82.2112 9.04424 82.2119 9.47374C82.2125 9.90324 82.3136 10.2775 82.5151 10.5965C82.7166 10.9154 82.9972 11.1628 83.3568 11.3387C83.69 11.5015 84.0178 11.5739 84.3402 11.5556C84.6655 11.5364 84.9624 11.4306 85.2309 11.2382C85.5023 11.0448 85.7241 10.7699 85.8966 10.4132L86.0904 10.5643L84.3413 9.70917L84.644 9.08318L86.8587 10.1659L86.556 10.7919C86.324 11.2718 86.02 11.6392 85.644 11.894C85.27 12.1497 84.8568 12.2878 84.4046 12.3083C83.9551 12.3278 83.4995 12.2246 83.0376 11.9988C82.5227 11.7471 82.129 11.4045 81.8565 10.9711C81.5858 10.5385 81.4499 10.0452 81.4487 9.49113C81.4493 8.93795 81.5983 8.35406 81.8954 7.73945C82.1183 7.2785 82.3802 6.8941 82.6812 6.58624C82.985 6.27742 83.3133 6.0486 83.6661 5.89977C84.0189 5.75094 84.384 5.68317 84.7614 5.69647C85.1388 5.70976 85.514 5.80756 85.8869 5.98987C86.1935 6.13979 86.4569 6.32601 86.677 6.54852C86.8998 6.77006 87.0746 7.01614 87.2012 7.28676C87.3306 7.55642 87.4089 7.84215 87.4362 8.14395C87.4643 8.44386 87.4366 8.74809 87.3529 9.05665L86.626 8.70128Z" fill="white"/>
<path d="M94.0952 10.9491L94.7495 11.3775L92.407 14.9551C92.1652 15.3244 91.8622 15.5972 91.4981 15.7734C91.1368 15.949 90.7441 16.0173 90.3198 15.9782C89.8968 15.9374 89.4733 15.7782 89.0494 15.5007C88.6255 15.2231 88.3103 14.8986 88.1037 14.5272C87.8983 14.1539 87.8029 13.7661 87.8177 13.3636C87.8353 12.9605 87.9651 12.5743 88.2069 12.205L90.5493 8.62744L91.2036 9.05585L88.8957 12.5806C88.723 12.8444 88.6273 13.1172 88.6086 13.399C88.5911 13.6791 88.6511 13.9483 88.7885 14.2066C88.9288 14.4643 89.1494 14.6917 89.4502 14.8886C89.7509 15.0855 90.0475 15.1968 90.3398 15.2223C90.6333 15.2461 90.904 15.1935 91.1519 15.0643C91.4028 14.9345 91.6146 14.7377 91.7873 14.4739L94.0952 10.9491Z" fill="white"/>
<path d="M92.6795 17.885L92.0565 17.3521L98.0235 13.959L98.6369 14.4837L96.2736 20.9589L95.6506 20.4261L97.6905 15.0183L97.6521 14.9856L92.6795 17.885ZM94.5365 16.1543L97.0476 18.3019L96.6002 18.832L94.0891 16.6843L94.5365 16.1543Z" fill="white"/>
<path d="M97.4353 22.0918L102.195 17.7178L103.673 19.3261C104.015 19.698 104.232 20.0616 104.324 20.417C104.418 20.7709 104.407 21.1063 104.293 21.4232C104.178 21.74 103.981 22.0273 103.7 22.285C103.42 22.5427 103.118 22.7139 102.796 22.7986C102.474 22.8833 102.142 22.864 101.8 22.7409C101.46 22.6163 101.12 22.3696 100.781 22.0008L99.5852 20.6993L100.106 20.2209L101.285 21.5038C101.518 21.758 101.743 21.9283 101.96 22.0149C102.178 22.1031 102.388 22.1194 102.588 22.0638C102.791 22.0083 102.988 21.893 103.179 21.7179C103.37 21.5428 103.503 21.3541 103.58 21.1518C103.658 20.9495 103.663 20.7346 103.597 20.5069C103.532 20.2778 103.381 20.0346 103.145 19.7774L102.214 18.764L97.965 22.6682L97.4353 22.0918ZM101.632 22.3674L100.571 25.5037L99.9555 24.8344L101.034 21.7167L101.632 22.3674Z" fill="white"/>
<path d="M102.011 27.2098L101.534 26.5437L108.152 24.7014L108.622 25.3572L104.763 31.0525L104.286 30.3864L107.573 25.646L107.543 25.605L102.011 27.2098ZM104.234 25.9835L106.156 28.6683L105.593 29.0732L103.671 26.3884L104.234 25.9835Z" fill="white"/>
<path d="M113.778 33.8583L108.078 36.9324L107.715 36.2662L110.5 30.7545L110.47 30.699L105.994 33.1126L105.619 32.4242L111.319 29.3501L111.682 30.0163L108.892 35.5451L108.922 35.6006L113.408 33.181L113.778 33.8583Z" fill="white"/>
<path d="M113.919 35.8053L114.564 35.5444L116.361 40.0601L115.715 40.321L114.962 38.4277L109.6 40.5954L109.31 39.8663L114.672 37.6986L113.919 35.8053Z" fill="white"/>
<path d="M110.655 43.5873L116.865 41.8589L117.918 45.6036L117.251 45.7893L116.409 42.7959L114.311 43.3799L115.098 46.1794L114.431 46.3651L113.644 43.5656L111.534 44.153L112.389 47.1948L111.722 47.3805L110.655 43.5873Z" fill="white"/>
<path d="M112.253 49.5168L118.654 48.4927L119.278 52.3548L118.591 52.4648L118.092 49.3776L115.929 49.7237L116.396 52.6109L115.708 52.7209L115.242 49.8337L113.066 50.1817L113.573 53.3189L112.886 53.4289L112.253 49.5168Z" fill="white"/>
<path d="M114.429 60.1543C114.424 59.8997 114.481 59.6659 114.601 59.453C114.723 59.2401 114.888 59.0684 115.096 58.938C115.304 58.8097 115.535 58.743 115.79 58.738C116.047 58.7329 116.28 58.7903 116.491 58.9104C116.704 59.0325 116.875 59.1975 117.003 59.4055C117.134 59.6134 117.201 59.8447 117.206 60.0993C117.212 60.356 117.153 60.5898 117.031 60.8006C116.911 61.0135 116.747 61.1841 116.539 61.3124C116.333 61.4428 116.102 61.5106 115.845 61.5156C115.591 61.5207 115.357 61.4622 115.144 61.3401C114.931 61.2201 114.759 61.0561 114.629 60.8482C114.501 60.6423 114.434 60.411 114.429 60.1543Z" fill="white"/>
<path d="M112.682 66.6941C112.718 66.4321 112.8 66.1756 112.927 65.9247C113.055 65.6737 113.246 65.4535 113.499 65.2641C113.754 65.0749 114.085 64.9381 114.491 64.8536C114.898 64.7694 115.398 64.7628 115.99 64.8338C116.556 64.9018 117.052 65.0151 117.477 65.1739C117.903 65.3329 118.254 65.5314 118.53 65.7695C118.808 66.0078 119.007 66.2791 119.129 66.5832C119.25 66.8895 119.289 67.2228 119.246 67.5832C119.202 67.9415 119.092 68.2516 118.914 68.5135C118.738 68.7777 118.513 68.9832 118.237 69.1297C117.961 69.2763 117.655 69.3557 117.317 69.3681L117.409 68.6056C117.706 68.5693 117.961 68.4604 118.175 68.279C118.389 68.0976 118.517 67.8382 118.558 67.5007C118.618 67.0049 118.45 66.5884 118.053 66.2512C117.656 65.9162 117.068 65.7008 116.289 65.6052L116.283 65.6552C116.446 65.7931 116.58 65.9498 116.686 66.1252C116.793 66.303 116.87 66.4939 116.915 66.6979C116.96 66.902 116.969 67.1134 116.942 67.3322C116.898 67.6988 116.766 68.0232 116.545 68.3054C116.327 68.5878 116.047 68.8014 115.703 68.9462C115.362 69.0913 114.986 69.139 114.573 69.0895C114.177 69.042 113.825 68.91 113.518 68.6934C113.212 68.4771 112.982 68.1969 112.827 67.8528C112.674 67.5111 112.626 67.1248 112.682 66.6941ZM113.37 66.7766C113.338 67.0391 113.375 67.2824 113.481 67.5065C113.587 67.7326 113.743 67.9194 113.949 68.0667C114.155 68.2161 114.393 68.3071 114.664 68.3396C114.929 68.3713 115.177 68.3408 115.408 68.2481C115.641 68.1577 115.834 68.0171 115.988 67.8264C116.142 67.6377 116.235 67.4121 116.267 67.1497C116.291 66.9517 116.274 66.7626 116.215 66.5823C116.159 66.4022 116.071 66.2395 115.951 66.0941C115.831 65.9507 115.688 65.8321 115.522 65.7382C115.357 65.6445 115.18 65.5862 114.988 65.5632C114.734 65.5327 114.489 65.5636 114.254 65.6558C114.018 65.7501 113.82 65.8933 113.659 66.0854C113.499 66.2796 113.402 66.51 113.37 66.7766Z" fill="white"/>
<path d="M111.857 71.7836C111.957 71.3176 112.169 70.9476 112.493 70.6735C112.819 70.3999 113.243 70.2279 113.765 70.1576C114.289 70.0876 114.896 70.1257 115.585 70.2719C116.269 70.4172 116.836 70.6278 117.283 70.9039C117.733 71.1824 118.05 71.5127 118.236 71.8949C118.423 72.2795 118.467 72.7027 118.368 73.1646C118.269 73.6265 118.055 73.994 117.727 74.2672C117.401 74.5428 116.976 74.7156 116.452 74.7856C115.929 74.858 115.326 74.8216 114.641 74.6763C113.952 74.5301 113.382 74.3188 112.933 74.0424C112.485 73.7663 112.168 73.4372 111.983 73.0551C111.799 72.6734 111.758 72.2496 111.857 71.7836ZM112.538 71.928C112.439 72.3899 112.585 72.7959 112.976 73.1461C113.367 73.4963 113.975 73.759 114.8 73.934C115.349 74.0504 115.828 74.0907 116.239 74.055C116.65 74.0214 116.98 73.9167 117.229 73.741C117.477 73.5674 117.634 73.328 117.7 73.0228C117.798 72.5651 117.648 72.1594 117.252 71.8058C116.857 71.4527 116.249 71.1888 115.426 71.0142C114.877 70.8978 114.398 70.8567 113.99 70.8907C113.581 70.9248 113.254 71.0289 113.007 71.2029C112.76 71.3791 112.604 71.6208 112.538 71.928Z" fill="white"/>
<path d="M113.366 78.3898L112.698 78.1903L113.518 75.4759L114.186 75.6753L113.366 78.3898Z" fill="white"/>
<path d="M109.447 79.8941L110.205 78.0395L116.224 80.4727L115.432 82.4094C115.194 82.9923 114.87 83.4425 114.459 83.7598C114.051 84.0779 113.577 84.2568 113.038 84.2964C112.501 84.3369 111.921 84.2312 111.298 83.9794C110.671 83.7259 110.177 83.3962 109.815 82.9902C109.456 82.585 109.242 82.1201 109.173 81.5954C109.106 81.0716 109.198 80.5044 109.447 79.8941ZM110.554 79.0286L110.113 80.1085C109.91 80.6054 109.838 81.056 109.896 81.4603C109.955 81.8646 110.128 82.2187 110.417 82.5224C110.707 82.8262 111.096 83.0771 111.586 83.2751C112.072 83.4715 112.522 83.5614 112.938 83.5447C113.355 83.5288 113.722 83.4014 114.039 83.1625C114.358 82.9244 114.613 82.5705 114.805 82.101L115.28 80.939L110.554 79.0286Z" fill="white"/>
<path d="M107.426 84.3117L107.828 83.5981L112.301 88.8001L111.906 89.5027L105.107 88.4283L105.509 87.7148L111.2 88.6769L111.224 88.633L107.426 84.3117ZM109.479 85.801L107.859 88.6772L107.254 88.3401L108.874 85.4639L109.479 85.801Z" fill="white"/>
<path d="M110.208 92.4062L109.69 93.1377L106.193 92.859L106.15 92.9208L107.577 96.1252L107.06 96.8567L105.307 92.7575L103.133 91.22L103.585 90.5813L105.759 92.1188L110.208 92.4062Z" fill="white"/>
<path d="M103.845 100.74L103.18 101.395L97.8526 99.1188L97.7987 99.1719L100 104.53L99.3353 105.186L94.8003 100.587L95.3213 100.073L98.7668 103.567L98.8118 103.523L96.8035 98.6119L97.3066 98.1159L102.189 100.193L102.234 100.149L98.7888 96.6546L99.3098 96.1409L103.845 100.74Z" fill="white"/>
<path d="M91.3833 107.176C90.9779 106.629 90.7259 106.082 90.6274 105.536C90.5288 104.989 90.571 104.479 90.7539 104.006C90.9368 103.532 91.2486 103.13 91.6893 102.8C92.1299 102.469 92.6018 102.284 93.1051 102.243C93.6083 102.201 94.106 102.306 94.5981 102.558C95.0902 102.809 95.5389 103.208 95.9444 103.755C96.3498 104.303 96.6018 104.849 96.7003 105.396C96.7989 105.942 96.7567 106.452 96.5737 106.925C96.3908 107.399 96.0791 107.801 95.6384 108.131C95.1978 108.462 94.7258 108.648 94.2226 108.689C93.7193 108.73 93.2217 108.625 92.7296 108.374C92.2375 108.123 91.7887 107.723 91.3833 107.176ZM91.9888 106.722C92.3216 107.171 92.6774 107.494 93.056 107.691C93.433 107.889 93.8073 107.973 94.1789 107.941C94.5488 107.911 94.8901 107.778 95.203 107.543C95.5158 107.309 95.7403 107.017 95.8767 106.668C96.0113 106.32 96.039 105.935 95.9597 105.514C95.8787 105.093 95.6718 104.659 95.3389 104.209C95.0061 103.76 94.6511 103.436 94.2742 103.238C93.8955 103.041 93.5212 102.958 93.1513 102.988C92.7797 103.02 92.4375 103.153 92.1247 103.388C91.8119 103.622 91.5882 103.914 91.4535 104.262C91.3172 104.611 91.2895 104.996 91.3705 105.416C91.4498 105.837 91.6559 106.273 91.9888 106.722Z" fill="white"/>
<path d="M86.811 113.613L83.6166 107.991L84.2768 107.619L89.8552 110.304L89.9102 110.273L87.4021 105.859L88.0843 105.474L91.2788 111.097L90.6185 111.469L85.0229 108.779L84.9679 108.81L87.4823 113.235L86.811 113.613Z" fill="white"/>
<path d="M82.2518 108.586L84.7441 114.529L81.1493 116.014L80.8815 115.375L83.7551 114.188L82.913 112.18L80.2256 113.29L79.9578 112.652L82.6453 111.542L81.7983 109.522L78.8782 110.728L78.6104 110.09L82.2518 108.586Z" fill="white"/>
<path d="M78.8813 116.912L78.0209 117.163L75.4634 114.766L75.3907 114.788L74.5066 118.188L73.6462 118.439L74.8343 114.135L74.0956 111.575L74.8469 111.356L75.5856 113.915L78.8813 116.912Z" fill="white"/>
<path d="M69.0319 115.918L68.8943 115.237L71.6657 114.672L71.8032 115.353L69.0319 115.918Z" fill="white"/>
<path d="M67.8355 112.93L68.5396 119.33L66.3021 119.579C65.8563 119.628 65.4801 119.592 65.1736 119.47C64.8673 119.35 64.6291 119.169 64.459 118.926C64.2892 118.686 64.1871 118.409 64.1527 118.097C64.1224 117.822 64.1464 117.589 64.2246 117.399C64.3007 117.209 64.4122 117.053 64.5591 116.932C64.7039 116.81 64.8652 116.714 65.043 116.644L65.0361 116.581C64.8389 116.59 64.6345 116.544 64.4228 116.441C64.2112 116.338 64.0259 116.177 63.8669 115.958C63.7079 115.74 63.6098 115.462 63.5727 115.124C63.5374 114.803 63.5786 114.507 63.6962 114.234C63.8138 113.962 64.0217 113.733 64.3198 113.548C64.6178 113.363 65.0189 113.242 65.5231 113.186L67.8355 112.93ZM67.1362 113.703L65.5987 113.874C65.0925 113.93 64.7439 114.068 64.5529 114.288C64.3601 114.509 64.2792 114.761 64.3101 115.042C64.334 115.259 64.4112 115.453 64.5418 115.624C64.6726 115.797 64.8461 115.927 65.0624 116.015C65.279 116.105 65.5268 116.134 65.806 116.103L67.3809 115.928L67.1362 113.703ZM67.4552 116.603L66.0177 116.763C65.7844 116.789 65.579 116.858 65.4016 116.971C65.2221 117.084 65.0864 117.229 64.9943 117.408C64.9001 117.588 64.8654 117.79 64.8902 118.015C64.9211 118.296 65.0453 118.524 65.2626 118.698C65.4802 118.874 65.8015 118.938 66.2265 118.891L67.6889 118.729L67.4552 116.603Z" fill="white"/>
<path d="M61.0167 113.521H61.8374L59.4637 119.985H58.6557L56.282 113.521H57.1027L59.0344 118.963H59.085L61.0167 113.521ZM60.7137 116.046H57.4057V115.352H60.7137V116.046Z" fill="white"/>
<path d="M48.8922 116.988L49.6671 117.098C49.6818 117.327 49.7345 117.534 49.8255 117.719C49.9144 117.904 50.032 118.065 50.1785 118.203C50.3225 118.342 50.4884 118.455 50.676 118.541C50.8637 118.627 51.0637 118.685 51.2762 118.715C51.6637 118.77 52.0284 118.721 52.3704 118.57C52.7103 118.418 52.9996 118.165 53.2384 117.81C53.4751 117.454 53.6323 117 53.7099 116.445C53.7875 115.891 53.7613 115.41 53.6314 115.003C53.4993 114.596 53.2908 114.272 53.0057 114.032C52.7186 113.792 52.3813 113.644 51.9938 113.589C51.7813 113.559 51.5731 113.559 51.3691 113.59C51.1651 113.621 50.9749 113.682 50.7985 113.774C50.6196 113.868 50.4622 113.991 50.326 114.144C50.1876 114.298 50.0799 114.483 50.0032 114.697L49.2282 114.588C49.3324 114.269 49.4796 113.991 49.6699 113.755C49.8602 113.518 50.0827 113.325 50.3372 113.176C50.5914 113.03 50.8678 112.93 51.1663 112.876C51.4628 112.822 51.7724 112.818 52.0953 112.864C52.6411 112.941 53.1078 113.143 53.4955 113.47C53.8831 113.797 54.1644 114.223 54.3392 114.75C54.5141 115.276 54.5543 115.876 54.4598 116.551C54.3653 117.227 54.1618 117.793 53.8492 118.25C53.5366 118.707 53.1492 119.039 52.6869 119.246C52.2246 119.452 51.7205 119.517 51.1747 119.44C50.8518 119.394 50.5553 119.304 50.2851 119.171C50.0128 119.037 49.7748 118.863 49.571 118.649C49.367 118.437 49.206 118.191 49.088 117.911C48.9697 117.633 48.9044 117.325 48.8922 116.988Z" fill="white"/>
<path d="M48.119 112.331L46.4546 118.604L45.6954 118.401L46.5211 115.289L46.4477 115.269L42.8056 117.626L41.8138 117.361L45.1974 115.236L43.4782 111.087L44.3966 111.333L45.8025 114.834L46.8202 114.161L47.3598 112.127L48.119 112.331Z" fill="white"/>
<path d="M33.3084 111.546C33.2804 111.767 33.2816 111.978 33.3121 112.179C33.3399 112.38 33.3982 112.569 33.4872 112.744C33.5743 112.918 33.6924 113.075 33.8416 113.216C33.9908 113.357 34.1704 113.478 34.3805 113.578C34.725 113.743 35.0805 113.804 35.4468 113.76C35.8131 113.716 36.1615 113.561 36.4922 113.293C36.8228 113.026 37.1073 112.64 37.3457 112.135C37.5841 111.631 37.7011 111.165 37.6967 110.737C37.6922 110.309 37.5882 109.938 37.3848 109.622C37.1813 109.306 36.8997 109.062 36.54 108.89C36.2069 108.731 35.8798 108.662 35.5589 108.683C35.2353 108.705 34.9406 108.813 34.6749 109.007C34.4065 109.202 34.188 109.478 34.0195 109.835L33.8252 109.686L35.5743 110.522L35.2785 111.148L33.0637 110.089L33.3595 109.463C33.5863 108.984 33.8857 108.615 34.2578 108.358C34.6279 108.1 35.038 107.959 35.4881 107.934C35.9355 107.911 36.3901 108.01 36.8519 108.23C37.3668 108.476 37.7619 108.814 38.0371 109.243C38.3105 109.671 38.4502 110.161 38.4564 110.713C38.4607 111.264 38.3176 111.846 38.0272 112.461C37.8094 112.922 37.552 113.307 37.2551 113.616C36.9554 113.926 36.6305 114.157 36.2806 114.308C35.9306 114.46 35.5677 114.53 35.1918 114.521C34.8159 114.511 34.4415 114.417 34.0686 114.239C33.7619 114.092 33.498 113.909 33.2769 113.689C33.0531 113.471 32.8769 113.227 32.7484 112.959C32.6172 112.692 32.5366 112.408 32.5068 112.108C32.4761 111.809 32.501 111.506 32.5815 111.198L33.3084 111.546Z" fill="white"/>
<path d="M25.7344 109.459L25.0756 109.036L27.4019 105.44C27.6421 105.069 27.9442 104.794 28.3083 104.615C28.6694 104.437 29.0628 104.366 29.4885 104.401C29.913 104.439 30.3387 104.595 30.7655 104.87C31.1923 105.144 31.5104 105.466 31.7199 105.836C31.9283 106.208 32.0263 106.595 32.0141 106.997C31.9989 107.401 31.8712 107.788 31.6311 108.159L29.3047 111.754L28.6459 111.331L30.9379 107.789C31.1095 107.523 31.2037 107.25 31.2207 106.968C31.2365 106.688 31.1747 106.419 31.0352 106.162C30.8929 105.905 30.6703 105.679 30.3674 105.485C30.0646 105.29 29.7665 105.181 29.4732 105.158C29.1787 105.136 28.9076 105.191 28.6598 105.322C28.4091 105.453 28.198 105.652 28.0264 105.917L25.7344 109.459Z" fill="white"/>
<path d="M27.0886 102.491L27.7218 103.018L21.7384 106.478L21.115 105.96L23.4355 99.455L24.0687 99.9813L22.0641 105.414L22.103 105.447L27.0886 102.491ZM25.2329 104.243L22.6807 102.122L23.1267 101.587L25.6789 103.708L25.2329 104.243Z" fill="white"/>
<path d="M22.3262 98.3193L17.5996 102.727L16.1112 101.129C15.7671 100.759 15.5477 100.397 15.4531 100.043C15.3569 99.6893 15.365 99.3538 15.4773 99.0362C15.5897 98.7186 15.7851 98.4299 16.0636 98.1703C16.3421 97.9106 16.6421 97.7373 16.9636 97.6503C17.2851 97.5634 17.6171 97.5803 17.9596 97.701C18.3005 97.8232 18.6416 98.0675 18.9829 98.4338L20.1874 99.7269L19.6704 100.209L18.4831 98.9344C18.248 98.6819 18.0218 98.5132 17.8045 98.4281C17.5859 98.3415 17.3766 98.3267 17.1766 98.3836C16.9738 98.4405 16.7777 98.5572 16.5884 98.7337C16.3992 98.9101 16.2668 99.0997 16.1912 99.3025C16.1156 99.5053 16.1117 99.7203 16.1796 99.9475C16.246 100.176 16.3982 100.418 16.6362 100.674L17.5739 101.681L21.7928 97.7467L22.3262 98.3193ZM18.1295 98.0733L19.1688 94.9297L19.7882 95.5947L18.7318 98.7198L18.1295 98.0733Z" fill="white"/>
<path d="M17.7384 93.182L18.2221 93.8461L11.5696 95.7051L11.0933 95.0512L14.9475 89.3505L15.4313 90.0146L12.1477 94.7598L12.1774 94.8006L17.7384 93.182ZM15.5077 94.4133L13.5578 91.7364L14.1221 91.3303L16.072 94.0072L15.5077 94.4133Z" fill="white"/>
<path d="M6.03889 86.6449L11.6611 83.5144L12.0254 84.1747L9.30501 89.7029L9.33536 89.7579L13.7497 87.3L14.1261 87.9823L8.50391 91.1128L8.13962 90.4525L10.8649 84.9072L10.8345 84.8522L6.40925 87.3162L6.03889 86.6449Z" fill="white"/>
<path d="M5.86402 84.7L5.22559 84.9678L3.38035 80.5004L4.01879 80.2326L4.79244 82.1057L10.0972 79.8811L10.3952 80.6024L5.09037 82.827L5.86402 84.7Z" fill="white"/>
<path d="M8.94991 76.8872L2.74023 78.6797L1.64805 74.9351L2.31511 74.7425L3.18815 77.7358L5.28634 77.1301L4.46985 74.3307L5.13691 74.1382L5.95339 76.9376L8.06371 76.3284L7.17653 73.2867L7.84359 73.0941L8.94991 76.8872Z" fill="white"/>
<path d="M7.32453 70.9684L0.928711 72.0557L0.304032 68.1905L0.991083 68.0737L1.49042 71.1633L3.65151 70.7959L3.18452 67.9064L3.87157 67.7896L4.33856 70.6791L6.51214 70.3096L6.00471 67.1699L6.69177 67.0531L7.32453 70.9684Z" fill="white"/>
<path d="M5.09173 60.3359C5.09682 60.5906 5.03939 60.8243 4.91945 61.0372C4.7974 61.2501 4.63242 61.4218 4.42451 61.5522C4.21656 61.6806 3.98527 61.7472 3.73065 61.7523C3.47392 61.7574 3.24015 61.6999 3.02934 61.5799C2.81639 61.4578 2.64572 61.2927 2.51736 61.0848C2.38689 60.8768 2.31911 60.6456 2.31402 60.3909C2.30889 60.1342 2.36736 59.9004 2.48946 59.6896C2.6094 59.4767 2.77335 59.3061 2.9813 59.1778C3.1871 59.0474 3.41837 58.9797 3.6751 58.9746C3.92972 58.9695 4.16351 59.0281 4.37647 59.1502C4.58938 59.2701 4.76108 59.4341 4.89154 59.642C5.01987 59.8479 5.08659 60.0792 5.09173 60.3359Z" fill="white"/>
<path d="M28.9148 69.7046H31.2362L32.8344 73.5952H32.8995L34.4977 69.7046H36.819V76.553H34.9967V72.5828H34.9388L33.4274 76.553H32.3282L30.7951 72.6045H30.73V76.553H28.9004L28.9148 69.7046Z" fill="white"/>
<path d="M44.3767 73.1392C44.3981 73.8109 44.2436 74.4766 43.9284 75.0701C43.654 75.5771 43.2365 75.992 42.7279 76.2633C42.2023 76.5296 41.6213 76.6683 41.0321 76.6683C40.4429 76.6683 39.8619 76.5296 39.3363 76.2633C38.8323 75.9858 38.4164 75.5724 38.1358 75.0701C37.8455 74.4678 37.6948 73.8078 37.6948 73.1392C37.6948 72.4707 37.8455 71.8107 38.1358 71.2084C38.4166 70.7136 38.8332 70.3096 39.3363 70.0441C39.8619 69.7779 40.4429 69.6392 41.0321 69.6392C41.6213 69.6392 42.2023 69.7779 42.7279 70.0441C43.2365 70.3154 43.654 70.7304 43.9284 71.2373C44.2387 71.8223 44.3931 72.4773 44.3767 73.1392ZM42.4603 73.1392C42.4692 72.7849 42.4128 72.4319 42.294 72.0979C42.2039 71.8358 42.0342 71.6084 41.8086 71.4475C41.583 71.2865 41.3128 71.2 41.0357 71.2C40.7586 71.2 40.4884 71.2865 40.2628 71.4475C40.0372 71.6084 39.8675 71.8358 39.7774 72.0979C39.5555 72.7744 39.5555 73.5041 39.7774 74.1806C39.8675 74.4427 40.0372 74.6701 40.2628 74.831C40.4884 74.992 40.7586 75.0785 41.0357 75.0785C41.3128 75.0785 41.583 74.992 41.8086 74.831C42.0342 74.6701 42.2039 74.4427 42.294 74.1806C42.4128 73.8466 42.4692 73.4936 42.4603 73.1392Z" fill="white"/>
<path d="M51.1812 69.7033V76.5517H49.6192L47.1387 72.9359H47.1026V76.5517H45.2368V69.6816H46.8205L49.2576 73.2975H49.3155V69.6816L51.1812 69.7033Z" fill="white"/>
<path d="M52.0635 76.5517V69.6816H57.0172V71.1858H53.9292V72.3646H56.764V73.8688H53.9292V75.1054H57.0027V76.5517H52.0635Z" fill="white"/>
<path d="M57.6611 69.7046H59.7438L61.0817 72.496H61.1034L62.4485 69.7046H64.5312L62.0363 74.3835V76.553H60.185V74.3835L57.6611 69.7046Z" fill="white"/>
<path d="M67.0298 76.5522V69.6822H70.0092C70.4594 69.6717 70.9078 69.7427 71.3326 69.8919C71.6534 70.0087 71.9326 70.2174 72.1353 70.4921C72.3255 70.7542 72.4223 71.0725 72.4101 71.3961C72.4166 71.6473 72.3594 71.8961 72.2438 72.1192C72.1343 72.3279 71.9754 72.5066 71.781 72.6399C71.5649 72.7899 71.3177 72.8888 71.0578 72.9292V73.0015C71.3416 73.0056 71.6199 73.0802 71.8678 73.2185C72.106 73.3566 72.3052 73.5532 72.4463 73.7897C72.5899 74.0482 72.6622 74.3402 72.656 74.6358C72.6625 74.9923 72.5617 75.3425 72.3667 75.641C72.1561 75.9433 71.8657 76.1812 71.5279 76.328C71.1225 76.5056 70.6831 76.592 70.2406 76.5812L67.0298 76.5522ZM68.8956 72.4591H69.6621C69.8107 72.4634 69.9586 72.4364 70.096 72.3796C70.2103 72.3347 70.3102 72.2597 70.3853 72.1626C70.4599 72.0571 70.4979 71.9302 70.4937 71.801C70.4985 71.7074 70.4798 71.6141 70.4394 71.5295C70.399 71.4449 70.3381 71.3717 70.2623 71.3165C70.0946 71.1951 69.8907 71.1339 69.6838 71.143H68.8956V72.4591ZM68.8956 75.0625H69.7706C70.024 75.0842 70.2777 75.0233 70.4937 74.889C70.5715 74.8273 70.6331 74.7477 70.6734 74.657C70.7137 74.5664 70.7315 74.4673 70.7252 74.3683C70.7312 74.2231 70.6934 74.0795 70.6167 73.9561C70.539 73.8441 70.4312 73.7563 70.3057 73.703C70.1326 73.6497 69.95 73.6349 69.7706 73.6596H68.8739L68.8956 75.0625Z" fill="white"/>
<path d="M75.1217 76.5517H73.1113L75.3748 69.6816H77.9276L80.1911 76.5517H78.1807L76.6765 71.5763H76.6259L75.1217 76.5517ZM74.7457 73.8398H78.5278V75.2355H74.7457V73.8398Z" fill="white"/>
<path d="M87.264 72.2783H85.3765C85.3635 72.1312 85.3269 71.9871 85.268 71.8516C85.2103 71.7287 85.1292 71.6182 85.0294 71.5262C84.9282 71.4293 84.8073 71.3553 84.675 71.3093C84.5188 71.2578 84.3549 71.2333 84.1905 71.2369C83.9106 71.2259 83.6345 71.3044 83.4023 71.4611C83.1744 71.6245 83.0026 71.8544 82.9105 72.1192C82.7932 72.4461 82.7369 72.7917 82.7442 73.1389C82.7352 73.498 82.7916 73.8557 82.9105 74.1947C83.0081 74.4507 83.1792 74.6721 83.4023 74.8311C83.6326 74.9793 83.9022 75.0549 84.176 75.048C84.3334 75.0523 84.4903 75.0278 84.6389 74.9757C84.7709 74.9382 84.8939 74.8742 85.0004 74.7877C85.1011 74.706 85.1847 74.6052 85.2463 74.4912C85.3088 74.3656 85.3526 74.2316 85.3765 74.0934H87.264C87.2388 74.4005 87.1554 74.6999 87.0181 74.9757C86.8682 75.296 86.6597 75.5854 86.4034 75.829C86.1287 76.0982 85.8012 76.3075 85.4416 76.4437C84.9524 76.622 84.432 76.6986 83.9123 76.6687C83.3925 76.6389 82.8843 76.5033 82.4187 76.2702C81.9166 75.9976 81.5064 75.5824 81.24 75.0769C80.9347 74.4803 80.7854 73.816 80.8061 73.1461C80.7825 72.475 80.9345 71.8095 81.2472 71.2152C81.5207 70.7101 81.9353 70.2955 82.4404 70.022C82.9569 69.7485 83.5338 69.6093 84.1182 69.6171C84.5232 69.6114 84.9263 69.6725 85.3114 69.7979C85.6616 69.9065 85.9881 70.0807 86.2732 70.3113C86.5506 70.5419 86.7771 70.8276 86.9385 71.1502C87.118 71.502 87.2284 71.8849 87.264 72.2783Z" fill="white"/>
<path d="M88.1099 76.5517V69.6816H89.9756V72.4586H90.0697L92.1379 69.6816H94.3074L91.986 72.7406L94.358 76.5517H92.1307L90.5831 73.9772L89.9684 74.7799V76.5517H88.1099Z" fill="white"/>
</svg>
